<svg xmlns="http://www.w3.org/2000/svg" viewBox="0 0 403.09 405.17"><defs><style>.cls-1{fill:#fff;}</style></defs><g id="Calque_2" data-name="Calque 2"><g id="Calque_1_-_copie_4" data-name="Calque 1 - copie 4"><path class="cls-1" d="M366.93,52.69a402.87,402.87,0,0,1-41.42-6q-12.7-2.49-25.13-5.79-8.22-2.19-16.3-4.7a397.77,397.77,0,0,1-41.42-15.42A402.94,402.94,0,0,1,201.55,0l-.31.18a402.39,402.39,0,0,1-41.42,20.91,398.41,398.41,0,0,1-41.43,15.35q-7.77,2.4-15.67,4.5Q90,44.3,77,46.86a406,406,0,0,1-41.42,5.89Q18,54.33,0,54.38v1q0,13.59.89,27A402.23,402.23,0,0,0,29.24,206.63q3,7.47,6.31,14.77,6.14,13.6,13.23,26.65a402.86,402.86,0,0,0,25.87,41.43c.76,1.08,1.54,2.15,2.32,3.22a404.4,404.4,0,0,0,31.48,38.2q4.88,5.24,9.94,10.29a406.33,406.33,0,0,0,34.94,31.13c2.14,1.7,4.31,3.38,6.49,5q9.94,7.56,20.38,14.52t21,13.12l.31.18q10.53-6.1,20.65-12.83,10.47-6.94,20.46-14.51,3.59-2.73,7.11-5.51a407,407,0,0,0,34.31-30.5q5.39-5.35,10.57-10.92a404.57,404.57,0,0,0,30.86-37.35q1.49-2,2.94-4.07a402.77,402.77,0,0,0,25.86-41.43q6.74-12.41,12.62-25.31,3.63-8,6.92-16.11A401.39,401.39,0,0,0,388,165.21a400.43,400.43,0,0,0,9.34-41.42,403.23,403.23,0,0,0,4.87-41.43q.89-13.36.89-26.95v-1Q384.8,54.34,366.93,52.69ZM77,242.06A330.6,330.6,0,0,1,38.36,123.79,337.06,337.06,0,0,1,35.7,82.36V80.63A336.56,336.56,0,0,0,77,78Zm82.85,98.55q-5.88-4.71-11.52-9.71a331.76,331.76,0,0,1-29.91-30v-94.3h41.43Zm0-175.4H118.39V70a328.94,328.94,0,0,0,41.43-13.7Zm62.38,0h-42v-118c1-.5,2.07-1,3.1-1.53l1.17-.58,1.23-.63.22-.11q1.32-.66,2.61-1.35c1.34-.69,2.66-1.4,4-2.11q4.41-2.37,8.73-4.88l.31-.18q4.47,2.59,9,5.06,1.95,1.05,3.9,2.07t3.84,2c1.28.65,2.57,1.29,3.87,1.93Zm61.88,136.44A331.25,331.25,0,0,1,254.8,330.9q-5.94,5.27-12.14,10.21V206.63h41.42Zm0-136.44H242.66V56.09a328.62,328.62,0,0,0,41.42,13.79ZM367.4,82.36q0,8.49-.47,16.87-.65,12.4-2.19,24.56a332.63,332.63,0,0,1-8,41.42,330,330,0,0,1-13.72,41.42,330.87,330.87,0,0,1-17.54,36.55V77.91a336.73,336.73,0,0,0,41.42,2.72h.47Z"/></g></g></svg>