<svg xmlns="http://www.w3.org/2000/svg" version="1.1" xmlns:xlink="http://www.w3.org/1999/xlink" xmlns:svgjs="http://svgjs.dev/svgjs" viewBox="0 0 800 800" opacity="0.73"><defs><linearGradient gradientTransform="rotate(270)" x1="50%" y1="0%" x2="50%" y2="100%" id="sssquiggly-grad"><stop stop-color="hsl(206, 75%, 49%)" stop-opacity="1" offset="0%"></stop><stop stop-color="hsl(331, 90%, 56%)" stop-opacity="1" offset="100%"></stop></linearGradient></defs><g stroke-width="1.5" stroke="url(#sssquiggly-grad)" fill="none" stroke-linecap="round" transform="matrix(1,0,0,1,-5,-131.96820831298828)"><path d="M10,10C23.06818181818182,20,44.507575757575765,70.29166666666667,72.72727272727273,58C100.9469696969697,45.70833333333333,115.15151515151517,-46.083333333333336,145.45454545454547,-49C175.75757575757575,-51.916666666666664,187.87878787878788,34.833333333333336,218.1818181818182,44C248.4848484848485,53.166666666666664,260.6060606060606,-2.9166666666666665,290.90909090909093,-5C321.21212121212125,-7.083333333333334,333.33333333333337,41.5,363.6363636363637,34C393.939393939394,26.5,406.06060606060606,-47.041666666666664,436.3636363636364,-41C466.6666666666667,-34.958333333333336,478.7878787878788,61.958333333333336,509.0909090909091,63C539.3939393939395,64.04166666666667,551.5151515151515,-32.666666666666664,581.8181818181819,-36C612.1212121212122,-39.333333333333336,624.2424242424242,46.166666666666664,654.5454545454546,47C684.848484848485,47.833333333333336,696.969696969697,-29.916666666666668,727.2727272727274,-32C757.5757575757577,-34.083333333333336,784.848484848485,22.625,800.0000000000001,37"></path><path d="M10,10C23.06818181818182,20,44.507575757575765,70.29166666666667,72.72727272727273,58C100.9469696969697,45.70833333333333,115.15151515151517,-46.083333333333336,145.45454545454547,-49C175.75757575757575,-51.916666666666664,187.87878787878788,34.833333333333336,218.1818181818182,44C248.4848484848485,53.166666666666664,260.6060606060606,-2.9166666666666665,290.90909090909093,-5C321.21212121212125,-7.083333333333334,333.33333333333337,41.5,363.6363636363637,34C393.939393939394,26.5,406.06060606060606,-47.041666666666664,436.3636363636364,-41C466.6666666666667,-34.958333333333336,478.7878787878788,61.958333333333336,509.0909090909091,63C539.3939393939395,64.04166666666667,551.5151515151515,-32.666666666666664,581.8181818181819,-36C612.1212121212122,-39.333333333333336,624.2424242424242,46.166666666666664,654.5454545454546,47C684.848484848485,47.833333333333336,696.969696969697,-29.916666666666668,727.2727272727274,-32C757.5757575757577,-34.083333333333336,784.848484848485,22.625,800.0000000000001,37" transform="matrix(1,0,0,1,0,1050)"></path><path d="M10,10C23.06818181818182,20,44.507575757575765,70.29166666666667,72.72727272727273,58C100.9469696969697,45.70833333333333,115.15151515151517,-46.083333333333336,145.45454545454547,-49C175.75757575757575,-51.916666666666664,187.87878787878788,34.833333333333336,218.1818181818182,44C248.4848484848485,53.166666666666664,260.6060606060606,-2.9166666666666665,290.90909090909093,-5C321.21212121212125,-7.083333333333334,333.33333333333337,41.5,363.6363636363637,34C393.939393939394,26.5,406.06060606060606,-47.041666666666664,436.3636363636364,-41C466.6666666666667,-34.958333333333336,478.7878787878788,61.958333333333336,509.0909090909091,63C539.3939393939395,64.04166666666667,551.5151515151515,-32.666666666666664,581.8181818181819,-36C612.1212121212122,-39.333333333333336,624.2424242424242,46.166666666666664,654.5454545454546,47C684.848484848485,47.833333333333336,696.969696969697,-29.916666666666668,727.2727272727274,-32C757.5757575757577,-34.083333333333336,784.848484848485,22.625,800.0000000000001,37" transform="matrix(1,0,0,1,0,1020)"></path><path d="M10,10C23.06818181818182,20,44.507575757575765,70.29166666666667,72.72727272727273,58C100.9469696969697,45.70833333333333,115.15151515151517,-46.083333333333336,145.45454545454547,-49C175.75757575757575,-51.916666666666664,187.87878787878788,34.833333333333336,218.1818181818182,44C248.4848484848485,53.166666666666664,260.6060606060606,-2.9166666666666665,290.90909090909093,-5C321.21212121212125,-7.083333333333334,333.33333333333337,41.5,363.6363636363637,34C393.939393939394,26.5,406.06060606060606,-47.041666666666664,436.3636363636364,-41C466.6666666666667,-34.958333333333336,478.7878787878788,61.958333333333336,509.0909090909091,63C539.3939393939395,64.04166666666667,551.5151515151515,-32.666666666666664,581.8181818181819,-36C612.1212121212122,-39.333333333333336,624.2424242424242,46.166666666666664,654.5454545454546,47C684.848484848485,47.833333333333336,696.969696969697,-29.916666666666668,727.2727272727274,-32C757.5757575757577,-34.083333333333336,784.848484848485,22.625,800.0000000000001,37" transform="matrix(1,0,0,1,0,990)"></path><path d="M10,10C23.06818181818182,20,44.507575757575765,70.29166666666667,72.72727272727273,58C100.9469696969697,45.70833333333333,115.15151515151517,-46.083333333333336,145.45454545454547,-49C175.75757575757575,-51.916666666666664,187.87878787878788,34.833333333333336,218.1818181818182,44C248.4848484848485,53.166666666666664,260.6060606060606,-2.9166666666666665,290.90909090909093,-5C321.21212121212125,-7.083333333333334,333.33333333333337,41.5,363.6363636363637,34C393.939393939394,26.5,406.06060606060606,-47.041666666666664,436.3636363636364,-41C466.6666666666667,-34.958333333333336,478.7878787878788,61.958333333333336,509.0909090909091,63C539.3939393939395,64.04166666666667,551.5151515151515,-32.666666666666664,581.8181818181819,-36C612.1212121212122,-39.333333333333336,624.2424242424242,46.166666666666664,654.5454545454546,47C684.848484848485,47.833333333333336,696.969696969697,-29.916666666666668,727.2727272727274,-32C757.5757575757577,-34.083333333333336,784.848484848485,22.625,800.0000000000001,37" transform="matrix(1,0,0,1,0,960)"></path><path d="M10,10C23.06818181818182,20,44.507575757575765,70.29166666666667,72.72727272727273,58C100.9469696969697,45.70833333333333,115.15151515151517,-46.083333333333336,145.45454545454547,-49C175.75757575757575,-51.916666666666664,187.87878787878788,34.833333333333336,218.1818181818182,44C248.4848484848485,53.166666666666664,260.6060606060606,-2.9166666666666665,290.90909090909093,-5C321.21212121212125,-7.083333333333334,333.33333333333337,41.5,363.6363636363637,34C393.939393939394,26.5,406.06060606060606,-47.041666666666664,436.3636363636364,-41C466.6666666666667,-34.958333333333336,478.7878787878788,61.958333333333336,509.0909090909091,63C539.3939393939395,64.04166666666667,551.5151515151515,-32.666666666666664,581.8181818181819,-36C612.1212121212122,-39.333333333333336,624.2424242424242,46.166666666666664,654.5454545454546,47C684.848484848485,47.833333333333336,696.969696969697,-29.916666666666668,727.2727272727274,-32C757.5757575757577,-34.083333333333336,784.848484848485,22.625,800.0000000000001,37" transform="matrix(1,0,0,1,0,930)"></path><path d="M10,10C23.06818181818182,20,44.507575757575765,70.29166666666667,72.72727272727273,58C100.9469696969697,45.70833333333333,115.15151515151517,-46.083333333333336,145.45454545454547,-49C175.75757575757575,-51.916666666666664,187.87878787878788,34.833333333333336,218.1818181818182,44C248.4848484848485,53.166666666666664,260.6060606060606,-2.9166666666666665,290.90909090909093,-5C321.21212121212125,-7.083333333333334,333.33333333333337,41.5,363.6363636363637,34C393.939393939394,26.5,406.06060606060606,-47.041666666666664,436.3636363636364,-41C466.6666666666667,-34.958333333333336,478.7878787878788,61.958333333333336,509.0909090909091,63C539.3939393939395,64.04166666666667,551.5151515151515,-32.666666666666664,581.8181818181819,-36C612.1212121212122,-39.333333333333336,624.2424242424242,46.166666666666664,654.5454545454546,47C684.848484848485,47.833333333333336,696.969696969697,-29.916666666666668,727.2727272727274,-32C757.5757575757577,-34.083333333333336,784.848484848485,22.625,800.0000000000001,37" transform="matrix(1,0,0,1,0,900)"></path><path d="M10,10C23.06818181818182,20,44.507575757575765,70.29166666666667,72.72727272727273,58C100.9469696969697,45.70833333333333,115.15151515151517,-46.083333333333336,145.45454545454547,-49C175.75757575757575,-51.916666666666664,187.87878787878788,34.833333333333336,218.1818181818182,44C248.4848484848485,53.166666666666664,260.6060606060606,-2.9166666666666665,290.90909090909093,-5C321.21212121212125,-7.083333333333334,333.33333333333337,41.5,363.6363636363637,34C393.939393939394,26.5,406.06060606060606,-47.041666666666664,436.3636363636364,-41C466.6666666666667,-34.958333333333336,478.7878787878788,61.958333333333336,509.0909090909091,63C539.3939393939395,64.04166666666667,551.5151515151515,-32.666666666666664,581.8181818181819,-36C612.1212121212122,-39.333333333333336,624.2424242424242,46.166666666666664,654.5454545454546,47C684.848484848485,47.833333333333336,696.969696969697,-29.916666666666668,727.2727272727274,-32C757.5757575757577,-34.083333333333336,784.848484848485,22.625,800.0000000000001,37" transform="matrix(1,0,0,1,0,870)"></path><path d="M10,10C23.06818181818182,20,44.507575757575765,70.29166666666667,72.72727272727273,58C100.9469696969697,45.70833333333333,115.15151515151517,-46.083333333333336,145.45454545454547,-49C175.75757575757575,-51.916666666666664,187.87878787878788,34.833333333333336,218.1818181818182,44C248.4848484848485,53.166666666666664,260.6060606060606,-2.9166666666666665,290.90909090909093,-5C321.21212121212125,-7.083333333333334,333.33333333333337,41.5,363.6363636363637,34C393.939393939394,26.5,406.06060606060606,-47.041666666666664,436.3636363636364,-41C466.6666666666667,-34.958333333333336,478.7878787878788,61.958333333333336,509.0909090909091,63C539.3939393939395,64.04166666666667,551.5151515151515,-32.666666666666664,581.8181818181819,-36C612.1212121212122,-39.333333333333336,624.2424242424242,46.166666666666664,654.5454545454546,47C684.848484848485,47.833333333333336,696.969696969697,-29.916666666666668,727.2727272727274,-32C757.5757575757577,-34.083333333333336,784.848484848485,22.625,800.0000000000001,37" transform="matrix(1,0,0,1,0,840)"></path><path d="M10,10C23.06818181818182,20,44.507575757575765,70.29166666666667,72.72727272727273,58C100.9469696969697,45.70833333333333,115.15151515151517,-46.083333333333336,145.45454545454547,-49C175.75757575757575,-51.916666666666664,187.87878787878788,34.833333333333336,218.1818181818182,44C248.4848484848485,53.166666666666664,260.6060606060606,-2.9166666666666665,290.90909090909093,-5C321.21212121212125,-7.083333333333334,333.33333333333337,41.5,363.6363636363637,34C393.939393939394,26.5,406.06060606060606,-47.041666666666664,436.3636363636364,-41C466.6666666666667,-34.958333333333336,478.7878787878788,61.958333333333336,509.0909090909091,63C539.3939393939395,64.04166666666667,551.5151515151515,-32.666666666666664,581.8181818181819,-36C612.1212121212122,-39.333333333333336,624.2424242424242,46.166666666666664,654.5454545454546,47C684.848484848485,47.833333333333336,696.969696969697,-29.916666666666668,727.2727272727274,-32C757.5757575757577,-34.083333333333336,784.848484848485,22.625,800.0000000000001,37" transform="matrix(1,0,0,1,0,810)"></path><path d="M10,10C23.06818181818182,20,44.507575757575765,70.29166666666667,72.72727272727273,58C100.9469696969697,45.70833333333333,115.15151515151517,-46.083333333333336,145.45454545454547,-49C175.75757575757575,-51.916666666666664,187.87878787878788,34.833333333333336,218.1818181818182,44C248.4848484848485,53.166666666666664,260.6060606060606,-2.9166666666666665,290.90909090909093,-5C321.21212121212125,-7.083333333333334,333.33333333333337,41.5,363.6363636363637,34C393.939393939394,26.5,406.06060606060606,-47.041666666666664,436.3636363636364,-41C466.6666666666667,-34.958333333333336,478.7878787878788,61.958333333333336,509.0909090909091,63C539.3939393939395,64.04166666666667,551.5151515151515,-32.666666666666664,581.8181818181819,-36C612.1212121212122,-39.333333333333336,624.2424242424242,46.166666666666664,654.5454545454546,47C684.848484848485,47.833333333333336,696.969696969697,-29.916666666666668,727.2727272727274,-32C757.5757575757577,-34.083333333333336,784.848484848485,22.625,800.0000000000001,37" transform="matrix(1,0,0,1,0,780)"></path><path d="M10,10C23.06818181818182,20,44.507575757575765,70.29166666666667,72.72727272727273,58C100.9469696969697,45.70833333333333,115.15151515151517,-46.083333333333336,145.45454545454547,-49C175.75757575757575,-51.916666666666664,187.87878787878788,34.833333333333336,218.1818181818182,44C248.4848484848485,53.166666666666664,260.6060606060606,-2.9166666666666665,290.90909090909093,-5C321.21212121212125,-7.083333333333334,333.33333333333337,41.5,363.6363636363637,34C393.939393939394,26.5,406.06060606060606,-47.041666666666664,436.3636363636364,-41C466.6666666666667,-34.958333333333336,478.7878787878788,61.958333333333336,509.0909090909091,63C539.3939393939395,64.04166666666667,551.5151515151515,-32.666666666666664,581.8181818181819,-36C612.1212121212122,-39.333333333333336,624.2424242424242,46.166666666666664,654.5454545454546,47C684.848484848485,47.833333333333336,696.969696969697,-29.916666666666668,727.2727272727274,-32C757.5757575757577,-34.083333333333336,784.848484848485,22.625,800.0000000000001,37" transform="matrix(1,0,0,1,0,750)"></path><path d="M10,10C23.06818181818182,20,44.507575757575765,70.29166666666667,72.72727272727273,58C100.9469696969697,45.70833333333333,115.15151515151517,-46.083333333333336,145.45454545454547,-49C175.75757575757575,-51.916666666666664,187.87878787878788,34.833333333333336,218.1818181818182,44C248.4848484848485,53.166666666666664,260.6060606060606,-2.9166666666666665,290.90909090909093,-5C321.21212121212125,-7.083333333333334,333.33333333333337,41.5,363.6363636363637,34C393.939393939394,26.5,406.06060606060606,-47.041666666666664,436.3636363636364,-41C466.6666666666667,-34.958333333333336,478.7878787878788,61.958333333333336,509.0909090909091,63C539.3939393939395,64.04166666666667,551.5151515151515,-32.666666666666664,581.8181818181819,-36C612.1212121212122,-39.333333333333336,624.2424242424242,46.166666666666664,654.5454545454546,47C684.848484848485,47.833333333333336,696.969696969697,-29.916666666666668,727.2727272727274,-32C757.5757575757577,-34.083333333333336,784.848484848485,22.625,800.0000000000001,37" transform="matrix(1,0,0,1,0,720)"></path><path d="M10,10C23.06818181818182,20,44.507575757575765,70.29166666666667,72.72727272727273,58C100.9469696969697,45.70833333333333,115.15151515151517,-46.083333333333336,145.45454545454547,-49C175.75757575757575,-51.916666666666664,187.87878787878788,34.833333333333336,218.1818181818182,44C248.4848484848485,53.166666666666664,260.6060606060606,-2.9166666666666665,290.90909090909093,-5C321.21212121212125,-7.083333333333334,333.33333333333337,41.5,363.6363636363637,34C393.939393939394,26.5,406.06060606060606,-47.041666666666664,436.3636363636364,-41C466.6666666666667,-34.958333333333336,478.7878787878788,61.958333333333336,509.0909090909091,63C539.3939393939395,64.04166666666667,551.5151515151515,-32.666666666666664,581.8181818181819,-36C612.1212121212122,-39.333333333333336,624.2424242424242,46.166666666666664,654.5454545454546,47C684.848484848485,47.833333333333336,696.969696969697,-29.916666666666668,727.2727272727274,-32C757.5757575757577,-34.083333333333336,784.848484848485,22.625,800.0000000000001,37" transform="matrix(1,0,0,1,0,690)"></path><path d="M10,10C23.06818181818182,20,44.507575757575765,70.29166666666667,72.72727272727273,58C100.9469696969697,45.70833333333333,115.15151515151517,-46.083333333333336,145.45454545454547,-49C175.75757575757575,-51.916666666666664,187.87878787878788,34.833333333333336,218.1818181818182,44C248.4848484848485,53.166666666666664,260.6060606060606,-2.9166666666666665,290.90909090909093,-5C321.21212121212125,-7.083333333333334,333.33333333333337,41.5,363.6363636363637,34C393.939393939394,26.5,406.06060606060606,-47.041666666666664,436.3636363636364,-41C466.6666666666667,-34.958333333333336,478.7878787878788,61.958333333333336,509.0909090909091,63C539.3939393939395,64.04166666666667,551.5151515151515,-32.666666666666664,581.8181818181819,-36C612.1212121212122,-39.333333333333336,624.2424242424242,46.166666666666664,654.5454545454546,47C684.848484848485,47.833333333333336,696.969696969697,-29.916666666666668,727.2727272727274,-32C757.5757575757577,-34.083333333333336,784.848484848485,22.625,800.0000000000001,37" transform="matrix(1,0,0,1,0,660)"></path><path d="M10,10C23.06818181818182,20,44.507575757575765,70.29166666666667,72.72727272727273,58C100.9469696969697,45.70833333333333,115.15151515151517,-46.083333333333336,145.45454545454547,-49C175.75757575757575,-51.916666666666664,187.87878787878788,34.833333333333336,218.1818181818182,44C248.4848484848485,53.166666666666664,260.6060606060606,-2.9166666666666665,290.90909090909093,-5C321.21212121212125,-7.083333333333334,333.33333333333337,41.5,363.6363636363637,34C393.939393939394,26.5,406.06060606060606,-47.041666666666664,436.3636363636364,-41C466.6666666666667,-34.958333333333336,478.7878787878788,61.958333333333336,509.0909090909091,63C539.3939393939395,64.04166666666667,551.5151515151515,-32.666666666666664,581.8181818181819,-36C612.1212121212122,-39.333333333333336,624.2424242424242,46.166666666666664,654.5454545454546,47C684.848484848485,47.833333333333336,696.969696969697,-29.916666666666668,727.2727272727274,-32C757.5757575757577,-34.083333333333336,784.848484848485,22.625,800.0000000000001,37" transform="matrix(1,0,0,1,0,630)"></path><path d="M10,10C23.06818181818182,20,44.507575757575765,70.29166666666667,72.72727272727273,58C100.9469696969697,45.70833333333333,115.15151515151517,-46.083333333333336,145.45454545454547,-49C175.75757575757575,-51.916666666666664,187.87878787878788,34.833333333333336,218.1818181818182,44C248.4848484848485,53.166666666666664,260.6060606060606,-2.9166666666666665,290.90909090909093,-5C321.21212121212125,-7.083333333333334,333.33333333333337,41.5,363.6363636363637,34C393.939393939394,26.5,406.06060606060606,-47.041666666666664,436.3636363636364,-41C466.6666666666667,-34.958333333333336,478.7878787878788,61.958333333333336,509.0909090909091,63C539.3939393939395,64.04166666666667,551.5151515151515,-32.666666666666664,581.8181818181819,-36C612.1212121212122,-39.333333333333336,624.2424242424242,46.166666666666664,654.5454545454546,47C684.848484848485,47.833333333333336,696.969696969697,-29.916666666666668,727.2727272727274,-32C757.5757575757577,-34.083333333333336,784.848484848485,22.625,800.0000000000001,37" transform="matrix(1,0,0,1,0,600)"></path><path d="M10,10C23.06818181818182,20,44.507575757575765,70.29166666666667,72.72727272727273,58C100.9469696969697,45.70833333333333,115.15151515151517,-46.083333333333336,145.45454545454547,-49C175.75757575757575,-51.916666666666664,187.87878787878788,34.833333333333336,218.1818181818182,44C248.4848484848485,53.166666666666664,260.6060606060606,-2.9166666666666665,290.90909090909093,-5C321.21212121212125,-7.083333333333334,333.33333333333337,41.5,363.6363636363637,34C393.939393939394,26.5,406.06060606060606,-47.041666666666664,436.3636363636364,-41C466.6666666666667,-34.958333333333336,478.7878787878788,61.958333333333336,509.0909090909091,63C539.3939393939395,64.04166666666667,551.5151515151515,-32.666666666666664,581.8181818181819,-36C612.1212121212122,-39.333333333333336,624.2424242424242,46.166666666666664,654.5454545454546,47C684.848484848485,47.833333333333336,696.969696969697,-29.916666666666668,727.2727272727274,-32C757.5757575757577,-34.083333333333336,784.848484848485,22.625,800.0000000000001,37" transform="matrix(1,0,0,1,0,570)"></path><path d="M10,10C23.06818181818182,20,44.507575757575765,70.29166666666667,72.72727272727273,58C100.9469696969697,45.70833333333333,115.15151515151517,-46.083333333333336,145.45454545454547,-49C175.75757575757575,-51.916666666666664,187.87878787878788,34.833333333333336,218.1818181818182,44C248.4848484848485,53.166666666666664,260.6060606060606,-2.9166666666666665,290.90909090909093,-5C321.21212121212125,-7.083333333333334,333.33333333333337,41.5,363.6363636363637,34C393.939393939394,26.5,406.06060606060606,-47.041666666666664,436.3636363636364,-41C466.6666666666667,-34.958333333333336,478.7878787878788,61.958333333333336,509.0909090909091,63C539.3939393939395,64.04166666666667,551.5151515151515,-32.666666666666664,581.8181818181819,-36C612.1212121212122,-39.333333333333336,624.2424242424242,46.166666666666664,654.5454545454546,47C684.848484848485,47.833333333333336,696.969696969697,-29.916666666666668,727.2727272727274,-32C757.5757575757577,-34.083333333333336,784.848484848485,22.625,800.0000000000001,37" transform="matrix(1,0,0,1,0,540)"></path><path d="M10,10C23.06818181818182,20,44.507575757575765,70.29166666666667,72.72727272727273,58C100.9469696969697,45.70833333333333,115.15151515151517,-46.083333333333336,145.45454545454547,-49C175.75757575757575,-51.916666666666664,187.87878787878788,34.833333333333336,218.1818181818182,44C248.4848484848485,53.166666666666664,260.6060606060606,-2.9166666666666665,290.90909090909093,-5C321.21212121212125,-7.083333333333334,333.33333333333337,41.5,363.6363636363637,34C393.939393939394,26.5,406.06060606060606,-47.041666666666664,436.3636363636364,-41C466.6666666666667,-34.958333333333336,478.7878787878788,61.958333333333336,509.0909090909091,63C539.3939393939395,64.04166666666667,551.5151515151515,-32.666666666666664,581.8181818181819,-36C612.1212121212122,-39.333333333333336,624.2424242424242,46.166666666666664,654.5454545454546,47C684.848484848485,47.833333333333336,696.969696969697,-29.916666666666668,727.2727272727274,-32C757.5757575757577,-34.083333333333336,784.848484848485,22.625,800.0000000000001,37" transform="matrix(1,0,0,1,0,510)"></path><path d="M10,10C23.06818181818182,20,44.507575757575765,70.29166666666667,72.72727272727273,58C100.9469696969697,45.70833333333333,115.15151515151517,-46.083333333333336,145.45454545454547,-49C175.75757575757575,-51.916666666666664,187.87878787878788,34.833333333333336,218.1818181818182,44C248.4848484848485,53.166666666666664,260.6060606060606,-2.9166666666666665,290.90909090909093,-5C321.21212121212125,-7.083333333333334,333.33333333333337,41.5,363.6363636363637,34C393.939393939394,26.5,406.06060606060606,-47.041666666666664,436.3636363636364,-41C466.6666666666667,-34.958333333333336,478.7878787878788,61.958333333333336,509.0909090909091,63C539.3939393939395,64.04166666666667,551.5151515151515,-32.666666666666664,581.8181818181819,-36C612.1212121212122,-39.333333333333336,624.2424242424242,46.166666666666664,654.5454545454546,47C684.848484848485,47.833333333333336,696.969696969697,-29.916666666666668,727.2727272727274,-32C757.5757575757577,-34.083333333333336,784.848484848485,22.625,800.0000000000001,37" transform="matrix(1,0,0,1,0,480)"></path><path d="M10,10C23.06818181818182,20,44.507575757575765,70.29166666666667,72.72727272727273,58C100.9469696969697,45.70833333333333,115.15151515151517,-46.083333333333336,145.45454545454547,-49C175.75757575757575,-51.916666666666664,187.87878787878788,34.833333333333336,218.1818181818182,44C248.4848484848485,53.166666666666664,260.6060606060606,-2.9166666666666665,290.90909090909093,-5C321.21212121212125,-7.083333333333334,333.33333333333337,41.5,363.6363636363637,34C393.939393939394,26.5,406.06060606060606,-47.041666666666664,436.3636363636364,-41C466.6666666666667,-34.958333333333336,478.7878787878788,61.958333333333336,509.0909090909091,63C539.3939393939395,64.04166666666667,551.5151515151515,-32.666666666666664,581.8181818181819,-36C612.1212121212122,-39.333333333333336,624.2424242424242,46.166666666666664,654.5454545454546,47C684.848484848485,47.833333333333336,696.969696969697,-29.916666666666668,727.2727272727274,-32C757.5757575757577,-34.083333333333336,784.848484848485,22.625,800.0000000000001,37" transform="matrix(1,0,0,1,0,450)"></path><path d="M10,10C23.06818181818182,20,44.507575757575765,70.29166666666667,72.72727272727273,58C100.9469696969697,45.70833333333333,115.15151515151517,-46.083333333333336,145.45454545454547,-49C175.75757575757575,-51.916666666666664,187.87878787878788,34.833333333333336,218.1818181818182,44C248.4848484848485,53.166666666666664,260.6060606060606,-2.9166666666666665,290.90909090909093,-5C321.21212121212125,-7.083333333333334,333.33333333333337,41.5,363.6363636363637,34C393.939393939394,26.5,406.06060606060606,-47.041666666666664,436.3636363636364,-41C466.6666666666667,-34.958333333333336,478.7878787878788,61.958333333333336,509.0909090909091,63C539.3939393939395,64.04166666666667,551.5151515151515,-32.666666666666664,581.8181818181819,-36C612.1212121212122,-39.333333333333336,624.2424242424242,46.166666666666664,654.5454545454546,47C684.848484848485,47.833333333333336,696.969696969697,-29.916666666666668,727.2727272727274,-32C757.5757575757577,-34.083333333333336,784.848484848485,22.625,800.0000000000001,37" transform="matrix(1,0,0,1,0,420)"></path><path d="M10,10C23.06818181818182,20,44.507575757575765,70.29166666666667,72.72727272727273,58C100.9469696969697,45.70833333333333,115.15151515151517,-46.083333333333336,145.45454545454547,-49C175.75757575757575,-51.916666666666664,187.87878787878788,34.833333333333336,218.1818181818182,44C248.4848484848485,53.166666666666664,260.6060606060606,-2.9166666666666665,290.90909090909093,-5C321.21212121212125,-7.083333333333334,333.33333333333337,41.5,363.6363636363637,34C393.939393939394,26.5,406.06060606060606,-47.041666666666664,436.3636363636364,-41C466.6666666666667,-34.958333333333336,478.7878787878788,61.958333333333336,509.0909090909091,63C539.3939393939395,64.04166666666667,551.5151515151515,-32.666666666666664,581.8181818181819,-36C612.1212121212122,-39.333333333333336,624.2424242424242,46.166666666666664,654.5454545454546,47C684.848484848485,47.833333333333336,696.969696969697,-29.916666666666668,727.2727272727274,-32C757.5757575757577,-34.083333333333336,784.848484848485,22.625,800.0000000000001,37" transform="matrix(1,0,0,1,0,390)"></path><path d="M10,10C23.06818181818182,20,44.507575757575765,70.29166666666667,72.72727272727273,58C100.9469696969697,45.70833333333333,115.15151515151517,-46.083333333333336,145.45454545454547,-49C175.75757575757575,-51.916666666666664,187.87878787878788,34.833333333333336,218.1818181818182,44C248.4848484848485,53.166666666666664,260.6060606060606,-2.9166666666666665,290.90909090909093,-5C321.21212121212125,-7.083333333333334,333.33333333333337,41.5,363.6363636363637,34C393.939393939394,26.5,406.06060606060606,-47.041666666666664,436.3636363636364,-41C466.6666666666667,-34.958333333333336,478.7878787878788,61.958333333333336,509.0909090909091,63C539.3939393939395,64.04166666666667,551.5151515151515,-32.666666666666664,581.8181818181819,-36C612.1212121212122,-39.333333333333336,624.2424242424242,46.166666666666664,654.5454545454546,47C684.848484848485,47.833333333333336,696.969696969697,-29.916666666666668,727.2727272727274,-32C757.5757575757577,-34.083333333333336,784.848484848485,22.625,800.0000000000001,37" transform="matrix(1,0,0,1,0,360)"></path><path d="M10,10C23.06818181818182,20,44.507575757575765,70.29166666666667,72.72727272727273,58C100.9469696969697,45.70833333333333,115.15151515151517,-46.083333333333336,145.45454545454547,-49C175.75757575757575,-51.916666666666664,187.87878787878788,34.833333333333336,218.1818181818182,44C248.4848484848485,53.166666666666664,260.6060606060606,-2.9166666666666665,290.90909090909093,-5C321.21212121212125,-7.083333333333334,333.33333333333337,41.5,363.6363636363637,34C393.939393939394,26.5,406.06060606060606,-47.041666666666664,436.3636363636364,-41C466.6666666666667,-34.958333333333336,478.7878787878788,61.958333333333336,509.0909090909091,63C539.3939393939395,64.04166666666667,551.5151515151515,-32.666666666666664,581.8181818181819,-36C612.1212121212122,-39.333333333333336,624.2424242424242,46.166666666666664,654.5454545454546,47C684.848484848485,47.833333333333336,696.969696969697,-29.916666666666668,727.2727272727274,-32C757.5757575757577,-34.083333333333336,784.848484848485,22.625,800.0000000000001,37" transform="matrix(1,0,0,1,0,330)"></path><path d="M10,10C23.06818181818182,20,44.507575757575765,70.29166666666667,72.72727272727273,58C100.9469696969697,45.70833333333333,115.15151515151517,-46.083333333333336,145.45454545454547,-49C175.75757575757575,-51.916666666666664,187.87878787878788,34.833333333333336,218.1818181818182,44C248.4848484848485,53.166666666666664,260.6060606060606,-2.9166666666666665,290.90909090909093,-5C321.21212121212125,-7.083333333333334,333.33333333333337,41.5,363.6363636363637,34C393.939393939394,26.5,406.06060606060606,-47.041666666666664,436.3636363636364,-41C466.6666666666667,-34.958333333333336,478.7878787878788,61.958333333333336,509.0909090909091,63C539.3939393939395,64.04166666666667,551.5151515151515,-32.666666666666664,581.8181818181819,-36C612.1212121212122,-39.333333333333336,624.2424242424242,46.166666666666664,654.5454545454546,47C684.848484848485,47.833333333333336,696.969696969697,-29.916666666666668,727.2727272727274,-32C757.5757575757577,-34.083333333333336,784.848484848485,22.625,800.0000000000001,37" transform="matrix(1,0,0,1,0,300)"></path><path d="M10,10C23.06818181818182,20,44.507575757575765,70.29166666666667,72.72727272727273,58C100.9469696969697,45.70833333333333,115.15151515151517,-46.083333333333336,145.45454545454547,-49C175.75757575757575,-51.916666666666664,187.87878787878788,34.833333333333336,218.1818181818182,44C248.4848484848485,53.166666666666664,260.6060606060606,-2.9166666666666665,290.90909090909093,-5C321.21212121212125,-7.083333333333334,333.33333333333337,41.5,363.6363636363637,34C393.939393939394,26.5,406.06060606060606,-47.041666666666664,436.3636363636364,-41C466.6666666666667,-34.958333333333336,478.7878787878788,61.958333333333336,509.0909090909091,63C539.3939393939395,64.04166666666667,551.5151515151515,-32.666666666666664,581.8181818181819,-36C612.1212121212122,-39.333333333333336,624.2424242424242,46.166666666666664,654.5454545454546,47C684.848484848485,47.833333333333336,696.969696969697,-29.916666666666668,727.2727272727274,-32C757.5757575757577,-34.083333333333336,784.848484848485,22.625,800.0000000000001,37" transform="matrix(1,0,0,1,0,270)"></path><path d="M10,10C23.06818181818182,20,44.507575757575765,70.29166666666667,72.72727272727273,58C100.9469696969697,45.70833333333333,115.15151515151517,-46.083333333333336,145.45454545454547,-49C175.75757575757575,-51.916666666666664,187.87878787878788,34.833333333333336,218.1818181818182,44C248.4848484848485,53.166666666666664,260.6060606060606,-2.9166666666666665,290.90909090909093,-5C321.21212121212125,-7.083333333333334,333.33333333333337,41.5,363.6363636363637,34C393.939393939394,26.5,406.06060606060606,-47.041666666666664,436.3636363636364,-41C466.6666666666667,-34.958333333333336,478.7878787878788,61.958333333333336,509.0909090909091,63C539.3939393939395,64.04166666666667,551.5151515151515,-32.666666666666664,581.8181818181819,-36C612.1212121212122,-39.333333333333336,624.2424242424242,46.166666666666664,654.5454545454546,47C684.848484848485,47.833333333333336,696.969696969697,-29.916666666666668,727.2727272727274,-32C757.5757575757577,-34.083333333333336,784.848484848485,22.625,800.0000000000001,37" transform="matrix(1,0,0,1,0,240)"></path><path d="M10,10C23.06818181818182,20,44.507575757575765,70.29166666666667,72.72727272727273,58C100.9469696969697,45.70833333333333,115.15151515151517,-46.083333333333336,145.45454545454547,-49C175.75757575757575,-51.916666666666664,187.87878787878788,34.833333333333336,218.1818181818182,44C248.4848484848485,53.166666666666664,260.6060606060606,-2.9166666666666665,290.90909090909093,-5C321.21212121212125,-7.083333333333334,333.33333333333337,41.5,363.6363636363637,34C393.939393939394,26.5,406.06060606060606,-47.041666666666664,436.3636363636364,-41C466.6666666666667,-34.958333333333336,478.7878787878788,61.958333333333336,509.0909090909091,63C539.3939393939395,64.04166666666667,551.5151515151515,-32.666666666666664,581.8181818181819,-36C612.1212121212122,-39.333333333333336,624.2424242424242,46.166666666666664,654.5454545454546,47C684.848484848485,47.833333333333336,696.969696969697,-29.916666666666668,727.2727272727274,-32C757.5757575757577,-34.083333333333336,784.848484848485,22.625,800.0000000000001,37" transform="matrix(1,0,0,1,0,210)"></path><path d="M10,10C23.06818181818182,20,44.507575757575765,70.29166666666667,72.72727272727273,58C100.9469696969697,45.70833333333333,115.15151515151517,-46.083333333333336,145.45454545454547,-49C175.75757575757575,-51.916666666666664,187.87878787878788,34.833333333333336,218.1818181818182,44C248.4848484848485,53.166666666666664,260.6060606060606,-2.9166666666666665,290.90909090909093,-5C321.21212121212125,-7.083333333333334,333.33333333333337,41.5,363.6363636363637,34C393.939393939394,26.5,406.06060606060606,-47.041666666666664,436.3636363636364,-41C466.6666666666667,-34.958333333333336,478.7878787878788,61.958333333333336,509.0909090909091,63C539.3939393939395,64.04166666666667,551.5151515151515,-32.666666666666664,581.8181818181819,-36C612.1212121212122,-39.333333333333336,624.2424242424242,46.166666666666664,654.5454545454546,47C684.848484848485,47.833333333333336,696.969696969697,-29.916666666666668,727.2727272727274,-32C757.5757575757577,-34.083333333333336,784.848484848485,22.625,800.0000000000001,37" transform="matrix(1,0,0,1,0,180)"></path><path d="M10,10C23.06818181818182,20,44.507575757575765,70.29166666666667,72.72727272727273,58C100.9469696969697,45.70833333333333,115.15151515151517,-46.083333333333336,145.45454545454547,-49C175.75757575757575,-51.916666666666664,187.87878787878788,34.833333333333336,218.1818181818182,44C248.4848484848485,53.166666666666664,260.6060606060606,-2.9166666666666665,290.90909090909093,-5C321.21212121212125,-7.083333333333334,333.33333333333337,41.5,363.6363636363637,34C393.939393939394,26.5,406.06060606060606,-47.041666666666664,436.3636363636364,-41C466.6666666666667,-34.958333333333336,478.7878787878788,61.958333333333336,509.0909090909091,63C539.3939393939395,64.04166666666667,551.5151515151515,-32.666666666666664,581.8181818181819,-36C612.1212121212122,-39.333333333333336,624.2424242424242,46.166666666666664,654.5454545454546,47C684.848484848485,47.833333333333336,696.969696969697,-29.916666666666668,727.2727272727274,-32C757.5757575757577,-34.083333333333336,784.848484848485,22.625,800.0000000000001,37" transform="matrix(1,0,0,1,0,150)"></path><path d="M10,10C23.06818181818182,20,44.507575757575765,70.29166666666667,72.72727272727273,58C100.9469696969697,45.70833333333333,115.15151515151517,-46.083333333333336,145.45454545454547,-49C175.75757575757575,-51.916666666666664,187.87878787878788,34.833333333333336,218.1818181818182,44C248.4848484848485,53.166666666666664,260.6060606060606,-2.9166666666666665,290.90909090909093,-5C321.21212121212125,-7.083333333333334,333.33333333333337,41.5,363.6363636363637,34C393.939393939394,26.5,406.06060606060606,-47.041666666666664,436.3636363636364,-41C466.6666666666667,-34.958333333333336,478.7878787878788,61.958333333333336,509.0909090909091,63C539.3939393939395,64.04166666666667,551.5151515151515,-32.666666666666664,581.8181818181819,-36C612.1212121212122,-39.333333333333336,624.2424242424242,46.166666666666664,654.5454545454546,47C684.848484848485,47.833333333333336,696.969696969697,-29.916666666666668,727.2727272727274,-32C757.5757575757577,-34.083333333333336,784.848484848485,22.625,800.0000000000001,37" transform="matrix(1,0,0,1,0,120)"></path><path d="M10,10C23.06818181818182,20,44.507575757575765,70.29166666666667,72.72727272727273,58C100.9469696969697,45.70833333333333,115.15151515151517,-46.083333333333336,145.45454545454547,-49C175.75757575757575,-51.916666666666664,187.87878787878788,34.833333333333336,218.1818181818182,44C248.4848484848485,53.166666666666664,260.6060606060606,-2.9166666666666665,290.90909090909093,-5C321.21212121212125,-7.083333333333334,333.33333333333337,41.5,363.6363636363637,34C393.939393939394,26.5,406.06060606060606,-47.041666666666664,436.3636363636364,-41C466.6666666666667,-34.958333333333336,478.7878787878788,61.958333333333336,509.0909090909091,63C539.3939393939395,64.04166666666667,551.5151515151515,-32.666666666666664,581.8181818181819,-36C612.1212121212122,-39.333333333333336,624.2424242424242,46.166666666666664,654.5454545454546,47C684.848484848485,47.833333333333336,696.969696969697,-29.916666666666668,727.2727272727274,-32C757.5757575757577,-34.083333333333336,784.848484848485,22.625,800.0000000000001,37" transform="matrix(1,0,0,1,0,90)"></path><path d="M10,10C23.06818181818182,20,44.507575757575765,70.29166666666667,72.72727272727273,58C100.9469696969697,45.70833333333333,115.15151515151517,-46.083333333333336,145.45454545454547,-49C175.75757575757575,-51.916666666666664,187.87878787878788,34.833333333333336,218.1818181818182,44C248.4848484848485,53.166666666666664,260.6060606060606,-2.9166666666666665,290.90909090909093,-5C321.21212121212125,-7.083333333333334,333.33333333333337,41.5,363.6363636363637,34C393.939393939394,26.5,406.06060606060606,-47.041666666666664,436.3636363636364,-41C466.6666666666667,-34.958333333333336,478.7878787878788,61.958333333333336,509.0909090909091,63C539.3939393939395,64.04166666666667,551.5151515151515,-32.666666666666664,581.8181818181819,-36C612.1212121212122,-39.333333333333336,624.2424242424242,46.166666666666664,654.5454545454546,47C684.848484848485,47.833333333333336,696.969696969697,-29.916666666666668,727.2727272727274,-32C757.5757575757577,-34.083333333333336,784.848484848485,22.625,800.0000000000001,37" transform="matrix(1,0,0,1,0,60)"></path><path d="M10,10C23.06818181818182,20,44.507575757575765,70.29166666666667,72.72727272727273,58C100.9469696969697,45.70833333333333,115.15151515151517,-46.083333333333336,145.45454545454547,-49C175.75757575757575,-51.916666666666664,187.87878787878788,34.833333333333336,218.1818181818182,44C248.4848484848485,53.166666666666664,260.6060606060606,-2.9166666666666665,290.90909090909093,-5C321.21212121212125,-7.083333333333334,333.33333333333337,41.5,363.6363636363637,34C393.939393939394,26.5,406.06060606060606,-47.041666666666664,436.3636363636364,-41C466.6666666666667,-34.958333333333336,478.7878787878788,61.958333333333336,509.0909090909091,63C539.3939393939395,64.04166666666667,551.5151515151515,-32.666666666666664,581.8181818181819,-36C612.1212121212122,-39.333333333333336,624.2424242424242,46.166666666666664,654.5454545454546,47C684.848484848485,47.833333333333336,696.969696969697,-29.916666666666668,727.2727272727274,-32C757.5757575757577,-34.083333333333336,784.848484848485,22.625,800.0000000000001,37" transform="matrix(1,0,0,1,0,30)"></path></g></svg>