<svg xmlns="http://www.w3.org/2000/svg" version="1.1" xmlns:xlink="http://www.w3.org/1999/xlink" xmlns:svgjs="http://svgjs.dev/svgjs" viewBox="0 0 800 800" width="800" height="800"><g stroke-width="3.25" stroke="hsl(261, 60%, 38%)" fill="none"><circle r="6.842105263157895" cx="0" cy="0" fill="hsl(261, 60%, 38%)" stroke="none" opacity="0.35"></circle><circle r="6.842105263157895" cx="50" cy="0" fill="hsl(261, 60%, 38%)" stroke="none" opacity="0.35"></circle><circle r="6.842105263157895" cx="100" cy="0" fill="hsl(261, 60%, 38%)" stroke="none" opacity="0.35"></circle><circle r="6.842105263157895" cx="150" cy="0" fill="hsl(261, 60%, 38%)" stroke="none" opacity="0.35"></circle><circle r="6.842105263157895" cx="200" cy="0" fill="hsl(261, 60%, 38%)" stroke="none" opacity="0.35"></circle><circle r="6.842105263157895" cx="250" cy="0" fill="hsl(261, 60%, 38%)" stroke="none" opacity="0.35"></circle><circle r="6.842105263157895" cx="300" cy="0" fill="hsl(261, 60%, 38%)" stroke="none" opacity="0.35"></circle><circle r="6.842105263157895" cx="350" cy="0" fill="hsl(261, 60%, 38%)" stroke="none" opacity="0.35"></circle><circle r="6.842105263157895" cx="400" cy="0" fill="hsl(261, 60%, 38%)" stroke="none" opacity="0.35"></circle><circle r="6.842105263157895" cx="450" cy="0" fill="hsl(261, 60%, 38%)" stroke="none" opacity="0.35"></circle><circle r="6.842105263157895" cx="500" cy="0" fill="hsl(261, 60%, 38%)" stroke="none" opacity="0.35"></circle><circle r="6.842105263157895" cx="550" cy="0" fill="hsl(261, 60%, 38%)" stroke="none" opacity="0.35"></circle><circle r="6.842105263157895" cx="600" cy="0" fill="hsl(261, 60%, 38%)" stroke="none" opacity="0.35"></circle><circle r="6.842105263157895" cx="650" cy="0" fill="hsl(261, 60%, 38%)" stroke="none" opacity="0.35"></circle><circle r="6.842105263157895" cx="700" cy="0" fill="hsl(261, 60%, 38%)" stroke="none" opacity="0.35"></circle><circle r="6.842105263157895" cx="750" cy="0" fill="hsl(261, 60%, 38%)" stroke="none" opacity="0.35"></circle><circle r="6.842105263157895" cx="800" cy="0" fill="hsl(261, 60%, 38%)" stroke="none" opacity="0.35"></circle><circle r="6.842105263157895" cx="0" cy="80" fill="hsl(261, 60%, 38%)" stroke="none" opacity="0.35"></circle><circle r="6.842105263157895" cx="50" cy="80" fill="hsl(261, 60%, 38%)" stroke="none" opacity="0.35"></circle><circle r="6.842105263157895" cx="100" cy="80" fill="hsl(261, 60%, 38%)" stroke="none"></circle><circle r="6.842105263157895" cx="150" cy="80" fill="hsl(261, 60%, 38%)" stroke="none" opacity="0.35"></circle><circle r="6.842105263157895" cx="200" cy="80" fill="hsl(261, 60%, 38%)" stroke="none" opacity="0.35"></circle><circle r="6.842105263157895" cx="250" cy="80" fill="hsl(261, 60%, 38%)" stroke="none" opacity="0.35"></circle><circle r="6.842105263157895" cx="300" cy="80" fill="hsl(261, 60%, 38%)" stroke="none" opacity="0.35"></circle><circle r="6.842105263157895" cx="350" cy="80" fill="hsl(261, 60%, 38%)" stroke="none"></circle><circle r="6.842105263157895" cx="400" cy="80" fill="hsl(261, 60%, 38%)" stroke="none"></circle><circle r="6.842105263157895" cx="450" cy="80" fill="hsl(261, 60%, 38%)" stroke="none" opacity="0.35"></circle><circle r="6.842105263157895" cx="500" cy="80" fill="hsl(261, 60%, 38%)" stroke="none" opacity="0.35"></circle><circle r="6.842105263157895" cx="550" cy="80" fill="hsl(261, 60%, 38%)" stroke="none" opacity="0.35"></circle><circle r="6.842105263157895" cx="600" cy="80" fill="hsl(261, 60%, 38%)" stroke="none" opacity="0.35"></circle><circle r="6.842105263157895" cx="650" cy="80" fill="hsl(261, 60%, 38%)" stroke="none" opacity="0.35"></circle><circle r="6.842105263157895" cx="700" cy="80" fill="hsl(261, 60%, 38%)" stroke="none"></circle><circle r="6.842105263157895" cx="750" cy="80" fill="hsl(261, 60%, 38%)" stroke="none" opacity="0.35"></circle><circle r="6.842105263157895" cx="800" cy="80" fill="hsl(261, 60%, 38%)" stroke="none" opacity="0.35"></circle><circle r="6.842105263157895" cx="0" cy="160" fill="hsl(261, 60%, 38%)" stroke="none" opacity="0.35"></circle><circle r="6.842105263157895" cx="50" cy="160" fill="hsl(261, 60%, 38%)" stroke="none"></circle><circle r="6.842105263157895" cx="100" cy="160" fill="hsl(261, 60%, 38%)" stroke="none" opacity="0.35"></circle><circle r="6.842105263157895" cx="150" cy="160" fill="hsl(261, 60%, 38%)" stroke="none"></circle><circle r="6.842105263157895" cx="200" cy="160" fill="hsl(261, 60%, 38%)" stroke="none"></circle><circle r="6.842105263157895" cx="250" cy="160" fill="hsl(261, 60%, 38%)" stroke="none" opacity="0.35"></circle><circle r="6.842105263157895" cx="300" cy="160" fill="hsl(261, 60%, 38%)" stroke="none" opacity="0.35"></circle><circle r="6.842105263157895" cx="350" cy="160" fill="hsl(261, 60%, 38%)" stroke="none"></circle><circle r="6.842105263157895" cx="400" cy="160" fill="hsl(261, 60%, 38%)" stroke="none" opacity="0.35"></circle><circle r="6.842105263157895" cx="450" cy="160" fill="hsl(261, 60%, 38%)" stroke="none" opacity="0.35"></circle><circle r="6.842105263157895" cx="500" cy="160" fill="hsl(261, 60%, 38%)" stroke="none"></circle><circle r="6.842105263157895" cx="550" cy="160" fill="hsl(261, 60%, 38%)" stroke="none" opacity="0.35"></circle><circle r="6.842105263157895" cx="600" cy="160" fill="hsl(261, 60%, 38%)" stroke="none"></circle><circle r="6.842105263157895" cx="650" cy="160" fill="hsl(261, 60%, 38%)" stroke="none" opacity="0.35"></circle><circle r="6.842105263157895" cx="700" cy="160" fill="hsl(261, 60%, 38%)" stroke="none" opacity="0.35"></circle><circle r="6.842105263157895" cx="750" cy="160" fill="hsl(261, 60%, 38%)" stroke="none"></circle><circle r="6.842105263157895" cx="800" cy="160" fill="hsl(261, 60%, 38%)" stroke="none" opacity="0.35"></circle><circle r="6.842105263157895" cx="0" cy="240" fill="hsl(261, 60%, 38%)" stroke="none" opacity="0.35"></circle><circle r="6.842105263157895" cx="50" cy="240" fill="hsl(261, 60%, 38%)" stroke="none"></circle><circle r="6.842105263157895" cx="100" cy="240" fill="hsl(261, 60%, 38%)" stroke="none"></circle><circle r="6.842105263157895" cx="150" cy="240" fill="hsl(261, 60%, 38%)" stroke="none" opacity="0.35"></circle><circle r="6.842105263157895" cx="200" cy="240" fill="hsl(261, 60%, 38%)" stroke="none" opacity="0.35"></circle><circle r="6.842105263157895" cx="250" cy="240" fill="hsl(261, 60%, 38%)" stroke="none" opacity="0.35"></circle><circle r="6.842105263157895" cx="300" cy="240" fill="hsl(261, 60%, 38%)" stroke="none"></circle><circle r="6.842105263157895" cx="350" cy="240" fill="hsl(261, 60%, 38%)" stroke="none" opacity="0.35"></circle><circle r="6.842105263157895" cx="400" cy="240" fill="hsl(261, 60%, 38%)" stroke="none" opacity="0.35"></circle><circle r="6.842105263157895" cx="450" cy="240" fill="hsl(261, 60%, 38%)" stroke="none" opacity="0.35"></circle><circle r="6.842105263157895" cx="500" cy="240" fill="hsl(261, 60%, 38%)" stroke="none" opacity="0.35"></circle><circle r="6.842105263157895" cx="550" cy="240" fill="hsl(261, 60%, 38%)" stroke="none" opacity="0.35"></circle><circle r="6.842105263157895" cx="600" cy="240" fill="hsl(261, 60%, 38%)" stroke="none" opacity="0.35"></circle><circle r="6.842105263157895" cx="650" cy="240" fill="hsl(261, 60%, 38%)" stroke="none" opacity="0.35"></circle><circle r="6.842105263157895" cx="700" cy="240" fill="hsl(261, 60%, 38%)" stroke="none" opacity="0.35"></circle><circle r="6.842105263157895" cx="750" cy="240" fill="hsl(261, 60%, 38%)" stroke="none" opacity="0.35"></circle><circle r="6.842105263157895" cx="800" cy="240" fill="hsl(261, 60%, 38%)" stroke="none" opacity="0.35"></circle><circle r="6.842105263157895" cx="0" cy="320" fill="hsl(261, 60%, 38%)" stroke="none" opacity="0.35"></circle><circle r="6.842105263157895" cx="50" cy="320" fill="hsl(261, 60%, 38%)" stroke="none" opacity="0.35"></circle><circle r="6.842105263157895" cx="100" cy="320" fill="hsl(261, 60%, 38%)" stroke="none" opacity="0.35"></circle><circle r="6.842105263157895" cx="150" cy="320" fill="hsl(261, 60%, 38%)" stroke="none" opacity="0.35"></circle><circle r="6.842105263157895" cx="200" cy="320" fill="hsl(261, 60%, 38%)" stroke="none"></circle><circle r="6.842105263157895" cx="250" cy="320" fill="hsl(261, 60%, 38%)" stroke="none"></circle><circle r="6.842105263157895" cx="300" cy="320" fill="hsl(261, 60%, 38%)" stroke="none"></circle><circle r="6.842105263157895" cx="350" cy="320" fill="hsl(261, 60%, 38%)" stroke="none" opacity="0.35"></circle><circle r="6.842105263157895" cx="400" cy="320" fill="hsl(261, 60%, 38%)" stroke="none"></circle><circle r="6.842105263157895" cx="450" cy="320" fill="hsl(261, 60%, 38%)" stroke="none" opacity="0.35"></circle><circle r="6.842105263157895" cx="500" cy="320" fill="hsl(261, 60%, 38%)" stroke="none" opacity="0.35"></circle><circle r="6.842105263157895" cx="550" cy="320" fill="hsl(261, 60%, 38%)" stroke="none" opacity="0.35"></circle><circle r="6.842105263157895" cx="600" cy="320" fill="hsl(261, 60%, 38%)" stroke="none" opacity="0.35"></circle><circle r="6.842105263157895" cx="650" cy="320" fill="hsl(261, 60%, 38%)" stroke="none" opacity="0.35"></circle><circle r="6.842105263157895" cx="700" cy="320" fill="hsl(261, 60%, 38%)" stroke="none" opacity="0.35"></circle><circle r="6.842105263157895" cx="750" cy="320" fill="hsl(261, 60%, 38%)" stroke="none" opacity="0.35"></circle><circle r="6.842105263157895" cx="800" cy="320" fill="hsl(261, 60%, 38%)" stroke="none" opacity="0.35"></circle><circle r="6.842105263157895" cx="0" cy="400" fill="hsl(261, 60%, 38%)" stroke="none" opacity="0.35"></circle><circle r="6.842105263157895" cx="50" cy="400" fill="hsl(261, 60%, 38%)" stroke="none" opacity="0.35"></circle><circle r="6.842105263157895" cx="100" cy="400" fill="hsl(261, 60%, 38%)" stroke="none" opacity="0.35"></circle><circle r="6.842105263157895" cx="150" cy="400" fill="hsl(261, 60%, 38%)" stroke="none" opacity="0.35"></circle><circle r="6.842105263157895" cx="200" cy="400" fill="hsl(261, 60%, 38%)" stroke="none" opacity="0.35"></circle><circle r="6.842105263157895" cx="250" cy="400" fill="hsl(261, 60%, 38%)" stroke="none" opacity="0.35"></circle><circle r="6.842105263157895" cx="300" cy="400" fill="hsl(261, 60%, 38%)" stroke="none"></circle><circle r="6.842105263157895" cx="350" cy="400" fill="hsl(261, 60%, 38%)" stroke="none" opacity="0.35"></circle><circle r="6.842105263157895" cx="400" cy="400" fill="hsl(261, 60%, 38%)" stroke="none" opacity="0.35"></circle><circle r="6.842105263157895" cx="450" cy="400" fill="hsl(261, 60%, 38%)" stroke="none"></circle><circle r="6.842105263157895" cx="500" cy="400" fill="hsl(261, 60%, 38%)" stroke="none"></circle><circle r="6.842105263157895" cx="550" cy="400" fill="hsl(261, 60%, 38%)" stroke="none" opacity="0.35"></circle><circle r="6.842105263157895" cx="600" cy="400" fill="hsl(261, 60%, 38%)" stroke="none"></circle><circle r="6.842105263157895" cx="650" cy="400" fill="hsl(261, 60%, 38%)" stroke="none" opacity="0.35"></circle><circle r="6.842105263157895" cx="700" cy="400" fill="hsl(261, 60%, 38%)" stroke="none" opacity="0.35"></circle><circle r="6.842105263157895" cx="750" cy="400" fill="hsl(261, 60%, 38%)" stroke="none" opacity="0.35"></circle><circle r="6.842105263157895" cx="800" cy="400" fill="hsl(261, 60%, 38%)" stroke="none" opacity="0.35"></circle><circle r="6.842105263157895" cx="0" cy="480" fill="hsl(261, 60%, 38%)" stroke="none" opacity="0.35"></circle><circle r="6.842105263157895" cx="50" cy="480" fill="hsl(261, 60%, 38%)" stroke="none" opacity="0.35"></circle><circle r="6.842105263157895" cx="100" cy="480" fill="hsl(261, 60%, 38%)" stroke="none" opacity="0.35"></circle><circle r="6.842105263157895" cx="150" cy="480" fill="hsl(261, 60%, 38%)" stroke="none" opacity="0.35"></circle><circle r="6.842105263157895" cx="200" cy="480" fill="hsl(261, 60%, 38%)" stroke="none" opacity="0.35"></circle><circle r="6.842105263157895" cx="250" cy="480" fill="hsl(261, 60%, 38%)" stroke="none" opacity="0.35"></circle><circle r="6.842105263157895" cx="300" cy="480" fill="hsl(261, 60%, 38%)" stroke="none"></circle><circle r="6.842105263157895" cx="350" cy="480" fill="hsl(261, 60%, 38%)" stroke="none" opacity="0.35"></circle><circle r="6.842105263157895" cx="400" cy="480" fill="hsl(261, 60%, 38%)" stroke="none"></circle><circle r="6.842105263157895" cx="450" cy="480" fill="hsl(261, 60%, 38%)" stroke="none"></circle><circle r="6.842105263157895" cx="500" cy="480" fill="hsl(261, 60%, 38%)" stroke="none"></circle><circle r="6.842105263157895" cx="550" cy="480" fill="hsl(261, 60%, 38%)" stroke="none"></circle><circle r="6.842105263157895" cx="600" cy="480" fill="hsl(261, 60%, 38%)" stroke="none"></circle><circle r="6.842105263157895" cx="650" cy="480" fill="hsl(261, 60%, 38%)" stroke="none" opacity="0.35"></circle><circle r="6.842105263157895" cx="700" cy="480" fill="hsl(261, 60%, 38%)" stroke="none" opacity="0.35"></circle><circle r="6.842105263157895" cx="750" cy="480" fill="hsl(261, 60%, 38%)" stroke="none" opacity="0.35"></circle><circle r="6.842105263157895" cx="800" cy="480" fill="hsl(261, 60%, 38%)" stroke="none" opacity="0.35"></circle><circle r="6.842105263157895" cx="0" cy="560" fill="hsl(261, 60%, 38%)" stroke="none" opacity="0.35"></circle><circle r="6.842105263157895" cx="50" cy="560" fill="hsl(261, 60%, 38%)" stroke="none" opacity="0.35"></circle><circle r="6.842105263157895" cx="100" cy="560" fill="hsl(261, 60%, 38%)" stroke="none" opacity="0.35"></circle><circle r="6.842105263157895" cx="150" cy="560" fill="hsl(261, 60%, 38%)" stroke="none" opacity="0.35"></circle><circle r="6.842105263157895" cx="200" cy="560" fill="hsl(261, 60%, 38%)" stroke="none" opacity="0.35"></circle><circle r="6.842105263157895" cx="250" cy="560" fill="hsl(261, 60%, 38%)" stroke="none" opacity="0.35"></circle><circle r="6.842105263157895" cx="300" cy="560" fill="hsl(261, 60%, 38%)" stroke="none"></circle><circle r="6.842105263157895" cx="350" cy="560" fill="hsl(261, 60%, 38%)" stroke="none" opacity="0.35"></circle><circle r="6.842105263157895" cx="400" cy="560" fill="hsl(261, 60%, 38%)" stroke="none" opacity="0.35"></circle><circle r="6.842105263157895" cx="450" cy="560" fill="hsl(261, 60%, 38%)" stroke="none"></circle><circle r="6.842105263157895" cx="500" cy="560" fill="hsl(261, 60%, 38%)" stroke="none" opacity="0.35"></circle><circle r="6.842105263157895" cx="550" cy="560" fill="hsl(261, 60%, 38%)" stroke="none" opacity="0.35"></circle><circle r="6.842105263157895" cx="600" cy="560" fill="hsl(261, 60%, 38%)" stroke="none" opacity="0.35"></circle><circle r="6.842105263157895" cx="650" cy="560" fill="hsl(261, 60%, 38%)" stroke="none" opacity="0.35"></circle><circle r="6.842105263157895" cx="700" cy="560" fill="hsl(261, 60%, 38%)" stroke="none" opacity="0.35"></circle><circle r="6.842105263157895" cx="750" cy="560" fill="hsl(261, 60%, 38%)" stroke="none" opacity="0.35"></circle><circle r="6.842105263157895" cx="800" cy="560" fill="hsl(261, 60%, 38%)" stroke="none" opacity="0.35"></circle><circle r="6.842105263157895" cx="0" cy="640" fill="hsl(261, 60%, 38%)" stroke="none" opacity="0.35"></circle><circle r="6.842105263157895" cx="50" cy="640" fill="hsl(261, 60%, 38%)" stroke="none"></circle><circle r="6.842105263157895" cx="100" cy="640" fill="hsl(261, 60%, 38%)" stroke="none" opacity="0.35"></circle><circle r="6.842105263157895" cx="150" cy="640" fill="hsl(261, 60%, 38%)" stroke="none"></circle><circle r="6.842105263157895" cx="200" cy="640" fill="hsl(261, 60%, 38%)" stroke="none" opacity="0.35"></circle><circle r="6.842105263157895" cx="250" cy="640" fill="hsl(261, 60%, 38%)" stroke="none" opacity="0.35"></circle><circle r="6.842105263157895" cx="300" cy="640" fill="hsl(261, 60%, 38%)" stroke="none" opacity="0.35"></circle><circle r="6.842105263157895" cx="350" cy="640" fill="hsl(261, 60%, 38%)" stroke="none" opacity="0.35"></circle><circle r="6.842105263157895" cx="400" cy="640" fill="hsl(261, 60%, 38%)" stroke="none" opacity="0.35"></circle><circle r="6.842105263157895" cx="450" cy="640" fill="hsl(261, 60%, 38%)" stroke="none" opacity="0.35"></circle><circle r="6.842105263157895" cx="500" cy="640" fill="hsl(261, 60%, 38%)" stroke="none"></circle><circle r="6.842105263157895" cx="550" cy="640" fill="hsl(261, 60%, 38%)" stroke="none"></circle><circle r="6.842105263157895" cx="600" cy="640" fill="hsl(261, 60%, 38%)" stroke="none"></circle><circle r="6.842105263157895" cx="650" cy="640" fill="hsl(261, 60%, 38%)" stroke="none" opacity="0.35"></circle><circle r="6.842105263157895" cx="700" cy="640" fill="hsl(261, 60%, 38%)" stroke="none" opacity="0.35"></circle><circle r="6.842105263157895" cx="750" cy="640" fill="hsl(261, 60%, 38%)" stroke="none"></circle><circle r="6.842105263157895" cx="800" cy="640" fill="hsl(261, 60%, 38%)" stroke="none" opacity="0.35"></circle><circle r="6.842105263157895" cx="0" cy="720" fill="hsl(261, 60%, 38%)" stroke="none" opacity="0.35"></circle><circle r="6.842105263157895" cx="50" cy="720" fill="hsl(261, 60%, 38%)" stroke="none" opacity="0.35"></circle><circle r="6.842105263157895" cx="100" cy="720" fill="hsl(261, 60%, 38%)" stroke="none" opacity="0.35"></circle><circle r="6.842105263157895" cx="150" cy="720" fill="hsl(261, 60%, 38%)" stroke="none" opacity="0.35"></circle><circle r="6.842105263157895" cx="200" cy="720" fill="hsl(261, 60%, 38%)" stroke="none" opacity="0.35"></circle><circle r="6.842105263157895" cx="250" cy="720" fill="hsl(261, 60%, 38%)" stroke="none" opacity="0.35"></circle><circle r="6.842105263157895" cx="300" cy="720" fill="hsl(261, 60%, 38%)" stroke="none" opacity="0.35"></circle><circle r="6.842105263157895" cx="350" cy="720" fill="hsl(261, 60%, 38%)" stroke="none" opacity="0.35"></circle><circle r="6.842105263157895" cx="400" cy="720" fill="hsl(261, 60%, 38%)" stroke="none"></circle><circle r="6.842105263157895" cx="450" cy="720" fill="hsl(261, 60%, 38%)" stroke="none"></circle><circle r="6.842105263157895" cx="500" cy="720" fill="hsl(261, 60%, 38%)" stroke="none" opacity="0.35"></circle><circle r="6.842105263157895" cx="550" cy="720" fill="hsl(261, 60%, 38%)" stroke="none"></circle><circle r="6.842105263157895" cx="600" cy="720" fill="hsl(261, 60%, 38%)" stroke="none"></circle><circle r="6.842105263157895" cx="650" cy="720" fill="hsl(261, 60%, 38%)" stroke="none" opacity="0.35"></circle><circle r="6.842105263157895" cx="700" cy="720" fill="hsl(261, 60%, 38%)" stroke="none" opacity="0.35"></circle><circle r="6.842105263157895" cx="750" cy="720" fill="hsl(261, 60%, 38%)" stroke="none" opacity="0.35"></circle><circle r="6.842105263157895" cx="800" cy="720" fill="hsl(261, 60%, 38%)" stroke="none" opacity="0.35"></circle><circle r="6.842105263157895" cx="0" cy="800" fill="hsl(261, 60%, 38%)" stroke="none" opacity="0.35"></circle><circle r="6.842105263157895" cx="50" cy="800" fill="hsl(261, 60%, 38%)" stroke="none" opacity="0.35"></circle><circle r="6.842105263157895" cx="100" cy="800" fill="hsl(261, 60%, 38%)" stroke="none" opacity="0.35"></circle><circle r="6.842105263157895" cx="150" cy="800" fill="hsl(261, 60%, 38%)" stroke="none" opacity="0.35"></circle><circle r="6.842105263157895" cx="200" cy="800" fill="hsl(261, 60%, 38%)" stroke="none" opacity="0.35"></circle><circle r="6.842105263157895" cx="250" cy="800" fill="hsl(261, 60%, 38%)" stroke="none" opacity="0.35"></circle><circle r="6.842105263157895" cx="300" cy="800" fill="hsl(261, 60%, 38%)" stroke="none" opacity="0.35"></circle><circle r="6.842105263157895" cx="350" cy="800" fill="hsl(261, 60%, 38%)" stroke="none" opacity="0.35"></circle><circle r="6.842105263157895" cx="400" cy="800" fill="hsl(261, 60%, 38%)" stroke="none" opacity="0.35"></circle><circle r="6.842105263157895" cx="450" cy="800" fill="hsl(261, 60%, 38%)" stroke="none" opacity="0.35"></circle><circle r="6.842105263157895" cx="500" cy="800" fill="hsl(261, 60%, 38%)" stroke="none" opacity="0.35"></circle><circle r="6.842105263157895" cx="550" cy="800" fill="hsl(261, 60%, 38%)" stroke="none" opacity="0.35"></circle><circle r="6.842105263157895" cx="600" cy="800" fill="hsl(261, 60%, 38%)" stroke="none" opacity="0.35"></circle><circle r="6.842105263157895" cx="650" cy="800" fill="hsl(261, 60%, 38%)" stroke="none" opacity="0.35"></circle><circle r="6.842105263157895" cx="700" cy="800" fill="hsl(261, 60%, 38%)" stroke="none" opacity="0.35"></circle><circle r="6.842105263157895" cx="750" cy="800" fill="hsl(261, 60%, 38%)" stroke="none" opacity="0.35"></circle><circle r="6.842105263157895" cx="800" cy="800" fill="hsl(261, 60%, 38%)" stroke="none" opacity="0.35"></circle></g></svg>