<svg xmlns="http://www.w3.org/2000/svg" version="1.1" xmlns:xlink="http://www.w3.org/1999/xlink" xmlns:svgjs="http://svgjs.dev/svgjs" viewBox="0 0 800 800" opacity="0.6"><defs><filter id="bbburst-blur-1" x="-100%" y="-100%" width="400%" height="400%"><feGaussianBlur in="SourceGraphic" stdDeviation="1"></feGaussianBlur></filter><filter id="bbburst-blur-2" x="-100%" y="-100%" width="400%" height="400%"><feGaussianBlur in="SourceGraphic" stdDeviation="2"></feGaussianBlur></filter><filter id="bbburst-blur-3" x="-100%" y="-100%" width="400%" height="400%"><feGaussianBlur in="SourceGraphic" stdDeviation="4"></feGaussianBlur></filter><filter id="bbburst-blur-4" x="-100%" y="-100%" width="400%" height="400%"><feGaussianBlur in="SourceGraphic" stdDeviation="12"></feGaussianBlur></filter><symbol id="bbburst-shape-1" viewBox="0 0 194 167"><path d="m97 0 96.129 166.5H.871L97 0Z"></path></symbol><symbol id="bbburst-shape-4" viewBox="0 0 149 143"><path d="M71.647 2.781c.898-2.764 4.808-2.764 5.706 0l15.445 47.534a3 3 0 0 0 2.853 2.073h49.98c2.906 0 4.115 3.719 1.764 5.427L106.96 87.193a2.999 2.999 0 0 0-1.09 3.354l15.445 47.534c.898 2.764-2.266 5.062-4.617 3.354l-40.435-29.378a3 3 0 0 0-3.526 0l-40.435 29.378c-2.351 1.708-5.515-.59-4.617-3.354L43.13 90.547a3 3 0 0 0-1.09-3.354L1.605 57.815c-2.35-1.708-1.142-5.427 1.764-5.427h49.98a3 3 0 0 0 2.853-2.073L71.647 2.781Z"></path></symbol><symbol id="bbburst-shape-6" viewBox="0 0 133 116"><path d="M59.7487 10.2513c-13.6683-13.66839-35.8291-13.66839-49.4974 0-13.66839 13.6683-13.66839 35.8291 0 49.4974l49.4974-49.4974ZM66.5 66.5 41.7513 91.2487 66.5 115.997l24.7487-24.7483L66.5 66.5Zm56.249-6.7513c13.668-13.6683 13.668-35.8291 0-49.4974-13.669-13.66839-35.8294-13.66839-49.4977 0l49.4977 49.4974Zm-112.4977 0 31.5 31.5 49.4974-49.4974-31.5-31.5-49.4974 49.4974Zm80.9974 31.5 31.5003-31.5-49.4977-49.4974-31.5 31.5 49.4974 49.4974Z"></path></symbol><symbol id="bbburst-shape-8" viewBox="0 0 87 168"><path d="m12 12 31.2546 18.0749c16.4102 9.4902 20.014 31.6325 7.4603 45.8369L36.3296 92.1884c-12.5684 14.2206-8.9394 36.3916 7.5068 45.8636L75 156" stroke-width="14" stroke-linecap="round" stroke-linejoin="round"></path></symbol><symbol id="bbburst-shape-10" viewBox="0 0 145 145"><circle cx="72.5" cy="72.5" r="61.5" fill="none" stroke-width="22"></circle></symbol></defs><use xlink:href="#bbburst-shape-4" width="64.0351590576669" opacity="0.30509946663181076" transform="matrix(0.9563838747470315,0.292112793495688,-0.292112793495688,0.9563838747470315,257.78802641827315,111.54110377873559)" fill="#00a19d" filter="url(#bbburst-blur-2)"></use><use xlink:href="#bbburst-shape-6" width="16.163592722019423" opacity="0.8667496778082248" transform="matrix(0.9589385961290374,0.283613767039033,-0.283613767039033,0.9589385961290374,851.9607360782145,292.19731887589234)" fill="#ffa6d5"></use><use xlink:href="#bbburst-shape-4" width="20.811715556739568" opacity="0.8176055011036398" transform="matrix(0.9380440315254658,0.34651608176165644,-0.34651608176165644,0.9380440315254658,833.8987993164341,265.4568040697407)" fill="#ffa6d5"></use><use xlink:href="#bbburst-shape-6" width="45.22892926587657" opacity="0.6259125346608678" transform="matrix(0.9955724839221727,-0.0939969640841408,0.0939969640841408,0.9955724839221727,369.6436548381299,350.4055460844381)" fill="#ffbd9b" filter="url(#bbburst-blur-1)"></use><use xlink:href="#bbburst-shape-4" width="12.93230595253997" opacity="0.9276055428212315" transform="matrix(0.7226500081844698,-0.6912141243283342,0.6912141243283342,0.7226500081844698,462.844280383572,469.54481194756517)" fill="#ffa6d5"></use><use xlink:href="#bbburst-shape-4" width="17.46297137680076" opacity="0.8058896977984538" transform="matrix(0.7357103870044002,0.6772962619517663,-0.6772962619517663,0.7357103870044002,883.0873542820096,430.7188165893597)" fill="#ffa6d5"></use><use xlink:href="#bbburst-shape-4" width="8.090970849903766" opacity="0.9548043625610817" transform="matrix(0.9573230187725491,-0.2890201337765477,0.2890201337765477,0.9573230187725491,638.3286389824248,402.0473037480806)" fill="#00a19d"></use><use xlink:href="#bbburst-shape-6" width="13.503631132090183" opacity="0.9267096813634439" transform="matrix(0.9474801088380215,-0.31981470159498765,0.31981470159498765,0.9474801088380215,594.3041728262983,406.5121685282316)" fill="#00a19d"></use><use xlink:href="#bbburst-shape-4" width="14.270722996968829" opacity="0.8549718784132666" transform="matrix(0.9502517268677558,-0.31148299405400615,0.31148299405400615,0.9502517268677558,651.2621632245432,278.1497976822841)" fill="#00a19d"></use><use xlink:href="#bbburst-shape-10" width="36.96804772288972" opacity="0.5954223235357841" transform="matrix(0.9994544552623026,0.033027138179593886,-0.033027138179593886,0.9994544552623026,671.4369455058879,14.276424619568047)" fill="none" stroke="#ff5c58" filter="url(#bbburst-blur-1)"></use><use xlink:href="#bbburst-shape-1" width="23.03588546930993" opacity="0.7745406793498266" transform="matrix(0.9287680056850917,0.3706615593985132,-0.3706615593985132,0.9287680056850917,715.0592302789473,387.82259394666454)" fill="#00a19d"></use><use xlink:href="#bbburst-shape-6" width="50.66106318508846" opacity="0.49105669773188854" transform="matrix(0.9268232215854775,0.3754979572912707,-0.3754979572912707,0.9268232215854775,523.9420924627439,108.64620147869977)" fill="#ff5c58" filter="url(#bbburst-blur-1)"></use><use xlink:href="#bbburst-shape-6" width="25.233440098734004" opacity="0.7635634490575256" transform="matrix(0.9519735565095632,-0.3061802536195524,0.3061802536195524,0.9519735565095632,464.47240060950526,298.6422145599919)" fill="#2c2891"></use><use xlink:href="#bbburst-shape-8" width="13.212307934757948" opacity="0.8212053819045865" transform="matrix(0.9985787593615136,-0.05329597876031842,0.05329597876031842,0.9985787593615136,717.4261443047338,230.68561634645545)" fill="none" stroke="#ffa6d5"></use><use xlink:href="#bbburst-shape-4" width="39.99631755113286" opacity="0.690750214256387" transform="matrix(0.9977015803245791,-0.06776102580272378,0.06776102580272378,0.9977015803245791,469.2700727674805,279.17048033876523)" fill="#ff5c58"></use><use xlink:href="#bbburst-shape-10" width="12.330258883747439" opacity="0.90366962859795" transform="matrix(0.940988750832148,0.3384378389118951,-0.3384378389118951,0.940988750832148,873.9273612005129,342.88585375549)" fill="none" stroke="#ff5c58"></use><use xlink:href="#bbburst-shape-4" width="15.30823955480173" opacity="0.8905502116573175" transform="matrix(0.9967155553032845,-0.0809821080021088,0.0809821080021088,0.9967155553032845,652.1974876880894,382.91221186364174)" fill="#ff5c58"></use><use xlink:href="#bbburst-shape-1" width="19.735398385999492" opacity="0.8441560486285558" transform="matrix(0.9004881166730516,-0.43488061779138953,0.43488061779138953,0.9004881166730516,482.609859672156,365.50541974455786)" fill="#00a19d"></use><use xlink:href="#bbburst-shape-6" width="12.468296151958954" opacity="0.8978429555222518" transform="matrix(0.8966239391907195,-0.4427928541317227,0.4427928541317227,0.8966239391907195,598.8619084040803,343.6304133802764)" fill="#ff5c58"></use><use xlink:href="#bbburst-shape-10" width="17.516576946343655" opacity="0.8642778684125811" transform="matrix(0.9881403245356838,-0.15355357054303037,0.15355357054303037,0.9881403245356838,639.8551823212007,304.5600347039811)" fill="none" stroke="#00a19d"></use><use xlink:href="#bbburst-shape-10" width="32.5155212829697" opacity="0.6741532581216381" transform="matrix(0.795596102485084,-0.6058274025748124,0.6058274025748124,0.795596102485084,506.41539998474934,168.02517220029074)" fill="none" stroke="#ffa6d5"></use><use xlink:href="#bbburst-shape-6" width="40.02600286941369" opacity="0.4811196009051546" transform="matrix(0.8877658572921316,0.4602953210997983,-0.4602953210997983,0.8877658572921316,830.4614523021628,-65.08811730608755)" fill="#2c2891" filter="url(#bbburst-blur-1)"></use><use xlink:href="#bbburst-shape-6" width="41.429469689815136" opacity="0.248418638158991" transform="matrix(0.7130222780304762,0.7011413773499823,-0.7011413773499823,0.7130222780304762,971.8466088137436,-245.43266201152085)" fill="#2c2891" filter="url(#bbburst-blur-3)"></use><use xlink:href="#bbburst-shape-8" width="73.32205018267535" opacity="0.1409029769933282" transform="matrix(0.9734436528590457,-0.2289267452886136,0.2289267452886136,0.9734436528590457,-46.2964552498358,-51.12474624085286)" fill="none" stroke="#ffa6d5" filter="url(#bbburst-blur-3)"></use><use xlink:href="#bbburst-shape-10" width="47.05520210992003" opacity="0.4453519718890029" transform="matrix(0.9997847334156466,-0.020748176522398843,0.020748176522398843,0.9997847334156466,259.48497504181046,179.51849133078883)" fill="none" stroke="#00a19d" filter="url(#bbburst-blur-2)"></use><use xlink:href="#bbburst-shape-4" width="38.86922237953313" opacity="0.5646803726698224" transform="matrix(0.8052120076280235,-0.5929870342356972,0.5929870342356972,0.8052120076280235,261.17102662671596,161.2856853757661)" fill="#ffa6d5" filter="url(#bbburst-blur-1)"></use><use xlink:href="#bbburst-shape-6" width="65.94838883256628" opacity="0.20492441046994914" transform="matrix(0.9445614268491093,-0.328334754341929,0.328334754341929,0.9445614268491093,77.85362239718896,-131.72598808257467)" fill="#2c2891" filter="url(#bbburst-blur-3)"></use><use xlink:href="#bbburst-shape-4" width="74.06069991207126" opacity="0.011032526780407337" transform="matrix(0.969263099276821,-0.24602651153949134,0.24602651153949134,0.969263099276821,-35.723959803995044,-275.69669410261116)" fill="#00a19d" filter="url(#bbburst-blur-3)"></use><use xlink:href="#bbburst-shape-4" width="4.9573496419632415" opacity="0.9850023501011274" transform="matrix(0.9011140895265807,-0.433582054122033,0.433582054122033,0.9011140895265807,617.8342964900917,427.11785644206157)" fill="#2c2891"></use><use xlink:href="#bbburst-shape-10" width="59.51462524984369" opacity="0.22003811895633885" transform="matrix(0.9993431147356714,0.036240019735185765,-0.036240019735185765,0.9993431147356714,45.247626333866265,151.2638452549587)" fill="none" stroke="#00a19d" filter="url(#bbburst-blur-3)"></use><use xlink:href="#bbburst-shape-10" width="28.728325279767578" opacity="0.7634459696381365" transform="matrix(0.998193447412424,-0.060081956883079775,0.060081956883079775,0.998193447412424,667.1300893933209,184.72680545712137)" fill="none" stroke="#00a19d"></use><use xlink:href="#bbburst-shape-1" width="10.257359220699955" opacity="0.9565384734729844" transform="matrix(0.9997830348970681,-0.020829861545575003,0.020829861545575003,0.9997830348970681,769.3276322291343,360.29927890537465)" fill="#2c2891"></use><use xlink:href="#bbburst-shape-10" width="21.73072593181846" opacity="0.6894658786718378" transform="matrix(0.7660835789955741,0.6427409664813127,-0.6427409664813127,0.7660835789955741,867.5319106577133,234.42576376966827)" fill="none" stroke="#00a19d"></use><use xlink:href="#bbburst-shape-1" width="26.5701194790333" opacity="0.6959128596423101" transform="matrix(0.8407463876879607,-0.5414291381054821,0.5414291381054821,0.8407463876879607,468.1265067819762,185.22827023902101)" fill="#00a19d"></use><use xlink:href="#bbburst-shape-6" width="43.73612075598737" opacity="0.6188000834200893" transform="matrix(0.7120812858146274,0.7020970320351646,-0.7020970320351646,0.7120812858146274,756.4467385568789,276.3335661707574)" fill="#2c2891" filter="url(#bbburst-blur-1)"></use><use xlink:href="#bbburst-shape-4" width="28.222871417146777" opacity="0.47542440824872234" transform="matrix(0.9705050981424251,0.24108059747636615,-0.24108059747636615,0.9705050981424251,840.6898676955285,-114.467433444395)" fill="#ffa6d5" filter="url(#bbburst-blur-1)"></use><use xlink:href="#bbburst-shape-10" width="44.8215373056642" opacity="0.5096519628847467" transform="matrix(0.9090180336217268,-0.416756781049198,0.416756781049198,0.9090180336217268,375.8424792832682,16.50909341802452)" fill="none" stroke="#00a19d" filter="url(#bbburst-blur-1)"></use><use xlink:href="#bbburst-shape-6" width="66.63611406809797" opacity="0.12438601606181665" transform="matrix(0.9959501613466807,-0.0899070415124459,0.0899070415124459,0.9959501613466807,246.76091705325143,-325.0094592668382)" fill="#ff5c58" filter="url(#bbburst-blur-3)"></use><use xlink:href="#bbburst-shape-6" width="29.03585490225799" opacity="0.5841315583265688" transform="matrix(0.9939154339159174,-0.11014585885875876,0.11014585885875876,0.9939154339159174,698.8737832468283,-9.643598369304868)" fill="#00a19d" filter="url(#bbburst-blur-1)"></use><use xlink:href="#bbburst-shape-8" width="70.24689496351388" opacity="0.2845624449784889" transform="matrix(0.7299312032285875,-0.683520620430186,0.683520620430186,0.7299312032285875,116.54314242405394,-71.35461361167691)" fill="none" stroke="#ff5c58" filter="url(#bbburst-blur-2)"></use><use xlink:href="#bbburst-shape-6" width="65.41115155855745" opacity="0.22856671723761823" transform="matrix(0.9927184043655614,-0.12045816549281271,0.12045816549281271,0.9927184043655614,449.89409619496905,-315.99076048442964)" fill="#2c2891" filter="url(#bbburst-blur-3)"></use><use xlink:href="#bbburst-shape-6" width="20.205871585084743" opacity="0.8009947932055816" transform="matrix(0.9587133375833216,-0.2843742891680752,0.2843742891680752,0.9587133375833216,653.2045236865958,221.75849284863227)" fill="#00a19d"></use><use xlink:href="#bbburst-shape-1" width="58.289058895807976" opacity="0.38652685738635173" transform="matrix(0.7193911357117084,0.6946052071928474,-0.6946052071928474,0.7193911357117084,820.308709120101,-73.99406957828046)" fill="#2c2891" filter="url(#bbburst-blur-2)"></use><use xlink:href="#bbburst-shape-6" width="7.426937750572934" opacity="0.9742084659226236" transform="matrix(0.9069916684111212,0.4211485645622109,-0.4211485645622109,0.9069916684111212,942.9481299401996,422.41515003129297)" fill="#00a19d"></use><use xlink:href="#bbburst-shape-1" width="30.883308860896772" opacity="0.7090313393797343" transform="matrix(0.9332507715755926,0.35922555220023145,-0.35922555220023145,0.9332507715755926,640.9516603947753,381.9700595494762)" fill="#00a19d"></use><use xlink:href="#bbburst-shape-8" width="18.28863478746719" opacity="0.8429903484381478" transform="matrix(0.8810386443239597,-0.473044297299734,0.473044297299734,0.8810386443239597,447.37481912547014,429.14815278065396)" fill="none" stroke="#ff5c58"></use><use xlink:href="#bbburst-shape-1" width="36.61757952404476" opacity="0.6244218382769362" transform="matrix(0.8069782365214169,0.5905811762838231,-0.5905811762838231,0.8069782365214169,835.8134511368353,139.92894117883122)" fill="#ffbd9b" filter="url(#bbburst-blur-1)"></use><use xlink:href="#bbburst-shape-10" width="22.564462924632913" opacity="0.8141778231485517" transform="matrix(0.8851791672239211,0.4652503002822949,-0.4652503002822949,0.8851791672239211,840.5235713905886,313.61511214734423)" fill="none" stroke="#00a19d"></use><use xlink:href="#bbburst-shape-8" width="65.74004046079095" opacity="0.33669446411229387" transform="matrix(0.9883169606695817,-0.1524125495254259,0.1524125495254259,0.9883169606695817,179.5343117074163,6.905446687837355)" fill="none" stroke="#ff5c58" filter="url(#bbburst-blur-2)"></use><use xlink:href="#bbburst-shape-1" width="14.266750965697884" opacity="0.887269838519344" transform="matrix(0.9498912573665367,-0.31258054830494497,0.31258054830494497,0.9498912573665367,570.3110213253547,366.3773226571465)" fill="#ffa6d5"></use><use xlink:href="#bbburst-shape-6" width="62.76216824758283" opacity="0.39649702039238566" transform="matrix(0.7897412348544472,0.6134401209332275,-0.6134401209332275,0.7897412348544472,424.5084816537173,370.5166035998621)" fill="#ffa6d5" filter="url(#bbburst-blur-2)"></use><use xlink:href="#bbburst-shape-10" width="56.23569048729003" opacity="0.5189679279807733" transform="matrix(0.9984398264986684,-0.05583827416126867,0.05583827416126867,0.9984398264986684,272.8674042886493,337.9544262449408)" fill="none" stroke="#00a19d" filter="url(#bbburst-blur-1)"></use><use xlink:href="#bbburst-shape-8" width="53.82798791514266" opacity="0.5720271901909888" transform="matrix(0.9999806016998516,-0.006228661493667244,0.006228661493667244,0.9999806016998516,376.02856248306307,234.41049968541546)" fill="none" stroke="#00a19d" filter="url(#bbburst-blur-1)"></use><use xlink:href="#bbburst-shape-1" width="52.0742179551499" opacity="0.3600702364025875" transform="matrix(0.8541895478412216,0.5199617450917032,-0.5199617450917032,0.8541895478412216,902.0697241597918,-189.5971350190958)" fill="#2c2891" filter="url(#bbburst-blur-2)"></use><use xlink:href="#bbburst-shape-4" width="12.518637047641576" opacity="0.9306241782747501" transform="matrix(0.7923929895015374,-0.610010942679569,0.610010942679569,0.7923929895015374,532.4200635843597,420.0404272373386)" fill="#ffa6d5"></use><use xlink:href="#bbburst-shape-10" width="67.48746517461893" opacity="0.40589799854637665" transform="matrix(0.8622307835577865,0.5065156225481358,-0.5065156225481358,0.8622307835577865,595.016397621235,-19.91279904912267)" fill="none" stroke="#ffa6d5" filter="url(#bbburst-blur-2)"></use><use xlink:href="#bbburst-shape-6" width="20.6053522396445" opacity="0.7464078959737797" transform="matrix(0.9181476968946083,0.39623832056872865,-0.39623832056872865,0.9181476968946083,915.9809447020251,177.23022831336226)" fill="#00a19d"></use><use xlink:href="#bbburst-shape-4" width="34.12792351988425" opacity="0.6962815285900147" transform="matrix(0.9930395955517085,0.11778099025946087,-0.11778099025946087,0.9930395955517085,601.9042666645214,200.44885293290338)" fill="#00a19d"></use><use xlink:href="#bbburst-shape-10" width="30.30955299798287" opacity="0.7616093182590745" transform="matrix(0.9743733206016623,-0.22493695138791742,0.22493695138791742,0.9743733206016623,543.255561055551,230.01552882127226)" fill="none" stroke="#ffa6d5"></use><use xlink:href="#bbburst-shape-1" width="62.48922468971897" opacity="0.26878036432972396" transform="matrix(0.9474409229375615,0.31993076992252795,-0.31993076992252795,0.9474409229375615,171.26033076042688,333.44224111362814)" fill="#00a19d" filter="url(#bbburst-blur-2)"></use></svg>