<svg xmlns="http://www.w3.org/2000/svg" viewBox="0 0 403.09 405.17"><defs><style>.cls-1{fill:#230055;}</style></defs><g id="Calque_2" data-name="Calque 2"><g id="Calque_1_-_copie_4" data-name="Calque 1 - copie 4"><path class="cls-1" d="M202,405.14c-7.1-4.12-14.17-8.53-21-13.11s-13.7-9.44-20.36-14.5c-2.19-1.66-4.37-3.35-6.48-5a409.89,409.89,0,0,1-34.9-31.09c-3.3-3.29-6.64-6.75-9.92-10.28A407.4,407.4,0,0,1,77.87,293c-.8-1.11-1.57-2.16-2.31-3.22a403.19,403.19,0,0,1-25.84-41.38c-4.69-8.61-9.13-17.56-13.21-26.61C34.34,217,32.22,212,30.2,207A401.26,401.26,0,0,1,1.89,82.91C1.3,74,1,64.94,1,56v-.53c11.71,0,23.51-.59,35.09-1.63a409.92,409.92,0,0,0,41.48-5.9c8.57-1.68,17.24-3.67,25.78-5.93,5.22-1.38,10.5-2.9,15.69-4.5a403,403,0,0,0,41.48-15.37A404.52,404.52,0,0,0,202,1.19l.06,0A405.27,405.27,0,0,0,243,21.86,400.88,400.88,0,0,0,284.43,37.3c5.18,1.61,10.67,3.2,16.32,4.7,8.39,2.22,16.85,4.17,25.16,5.8a405.51,405.51,0,0,0,41.47,6c11.79,1.08,23.8,1.65,35.71,1.69V56c0,8.95-.3,18-.89,26.92a404.88,404.88,0,0,1-4.86,41.38A403.67,403.67,0,0,1,388,165.65,401.57,401.57,0,0,1,373.89,207c-2.15,5.33-4.48,10.75-6.92,16.09-3.88,8.54-8.13,17-12.6,25.28a403.08,403.08,0,0,1-25.83,41.38q-1.46,2-2.93,4.07a407.56,407.56,0,0,1-30.83,37.3c-3.47,3.72-7,7.39-10.55,10.91A410.93,410.93,0,0,1,250,372.51c-2.16,1.71-4.48,3.51-7.1,5.5-6.66,5-13.53,9.92-20.44,14.49-6.73,4.47-13.58,8.73-20.37,12.67Zm40.66-62.41.81-.65c4.2-3.35,8.29-6.79,12.16-10.22A332.27,332.27,0,0,0,285,302.56l.13-.14V206.71H242.66Zm-124.27-41,.12.14a334.2,334.2,0,0,0,30,30c3.79,3.35,7.67,6.62,11.54,9.72l.81.65V206.71H118.39Zm207.12-56,.94-1.68A332.4,332.4,0,0,0,344,207.4a330.82,330.82,0,0,0,13.74-41.48,335.06,335.06,0,0,0,8-41.49c1-8.2,1.77-16.48,2.19-24.59.29-5.43.45-11.11.47-16.9V80.71h-1A336.38,336.38,0,0,1,326.07,78l-.56-.07ZM77.41,78.07A337.37,337.37,0,0,1,36.2,80.71h-.5v2.23a340.47,340.47,0,0,0,2.66,41.49,335.06,335.06,0,0,0,8,41.49,330.74,330.74,0,0,0,30.68,77l.94,1.7V78Zm165.25,88.22h42.42V70.07l-.37-.09a330.35,330.35,0,0,1-41.36-13.77l-.69-.28ZM201.48,36.21c-2.93,1.7-5.86,3.34-8.71,4.87-1.31.71-2.63,1.42-4,2.11-.86.46-1.73.91-2.6,1.34l-.19.1c-.45.24-.86.44-1.26.64l-1.17.58c-1,.52-2.06,1-3.1,1.53l-.28.14V166.29h43V47.19l-.28-.14c-1.3-.64-2.59-1.28-3.86-1.93s-2.57-1.3-3.84-2-2.59-1.37-3.89-2.07c-3-1.64-6.08-3.34-9-5l-.25-.15ZM160.13,56.46a330.6,330.6,0,0,1-41.37,13.68l-.37.09v96.06h42.43V56.18Z" transform="translate(-0.5 -0.58)"/><path d="M202.05,1.74a406.41,406.41,0,0,0,40.71,20.58,402.72,402.72,0,0,0,41.52,15.46c5.19,1.61,10.69,3.2,16.34,4.71,8.4,2.22,16.88,4.17,25.2,5.8a406.1,406.1,0,0,0,41.52,6C379,55.33,390.82,55.9,402.59,56v0c0,8.94-.3,18-.89,26.89a401.26,401.26,0,0,1-4.86,41.32,400.23,400.23,0,0,1-9.31,41.32,401.46,401.46,0,0,1-14.11,41.32c-2.15,5.33-4.47,10.73-6.9,16.07-3.88,8.52-8.12,17-12.59,25.24a402.67,402.67,0,0,1-25.79,41.33q-1.45,2-2.94,4.06a405.15,405.15,0,0,1-30.78,37.26c-3.48,3.73-7,7.39-10.55,10.89a406.36,406.36,0,0,1-34.22,30.43c-2.14,1.69-4.46,3.49-7.09,5.49-6.65,5-13.52,9.9-20.41,14.48-6.64,4.4-13.4,8.61-20.1,12.5-7-4.08-14-8.44-20.8-13s-13.68-9.44-20.33-14.49c-2.21-1.67-4.39-3.36-6.47-5a405.49,405.49,0,0,1-34.85-31.06c-3.31-3.3-6.65-6.75-9.92-10.26a406.36,406.36,0,0,1-31.4-38.11c-.78-1.06-1.56-2.13-2.32-3.21a404.53,404.53,0,0,1-25.8-41.33C45.48,239.56,41,230.61,37,221.57c-2.16-4.8-4.28-9.75-6.29-14.73a401.29,401.29,0,0,1-28.28-124C1.8,74,1.5,64.93,1.5,56v0c11.56-.06,23.21-.61,34.64-1.63a411.12,411.12,0,0,0,41.52-5.91c8.59-1.68,17.28-3.68,25.82-5.93,5.23-1.39,10.52-2.91,15.7-4.51a401.8,401.8,0,0,0,41.54-15.39A406.76,406.76,0,0,0,202.05,1.74m-22.35,165h44V46.88l-.56-.28c-1.29-.63-2.58-1.27-3.86-1.92s-2.57-1.31-3.83-2-2.59-1.36-3.89-2.06c-3-1.63-6.05-3.33-9-5l-.51-.3-.5.3-.14.08-.16.1c-2.94,1.7-5.87,3.33-8.71,4.86-1.29.7-2.63,1.42-4,2.11-.85.45-1.72.9-2.59,1.34h-.05l-.11.06,0,0,0,0c-.4.21-.8.42-1.2.61l-.59.3-.59.29-3.08,1.52-.57.27V166.79m62.46,0h43.42V69.69l-.75-.2a326.57,326.57,0,0,1-41.29-13.75l-1.38-.56V166.79m-124.27,0h43.43V55.44l-1.38.55a327.87,327.87,0,0,1-41.3,13.66l-.75.2v96.94M325,247.61l1.87-3.36a332.62,332.62,0,0,0,17.6-36.66A334.67,334.67,0,0,0,358.24,166a335.48,335.48,0,0,0,8-41.54c1-8.22,1.78-16.51,2.2-24.64.29-5.44.45-11.14.47-16.92V80.21h-1.47a337.09,337.09,0,0,1-41.29-2.71L325,77.35V247.61M78.47,246.52V77.44l-1.13.14A336.22,336.22,0,0,1,36.2,80.21h-1v2.73a339.75,339.75,0,0,0,2.67,41.56A331.1,331.1,0,0,0,76.59,243.12l1.88,3.4m163.69,97.25,1.62-1.3c4.2-3.35,8.3-6.8,12.18-10.24a331.93,331.93,0,0,0,29.37-29.34l.25-.28v-96.4H242.16V343.77m-80.84-.5V206.21H117.89v95.68l.25.28a333.78,333.78,0,0,0,30,30.06c3.79,3.36,7.68,6.64,11.55,9.74l1.63,1.3M202.05.58l-.31.18a402.39,402.39,0,0,1-41.42,20.91A398.41,398.41,0,0,1,118.89,37q-7.77,2.4-15.67,4.5Q90.5,44.88,77.47,47.44a406,406,0,0,1-41.42,5.89Q18.49,54.91.5,55v1q0,13.59.89,26.95A402.23,402.23,0,0,0,29.74,207.21q3,7.47,6.31,14.77,6.14,13.61,13.23,26.65a402.86,402.86,0,0,0,25.87,41.43c.76,1.08,1.54,2.15,2.32,3.22A404.4,404.4,0,0,0,109,331.48q4.88,5.24,9.94,10.29a406.33,406.33,0,0,0,34.94,31.13c2.14,1.7,4.31,3.38,6.49,5q9.94,7.56,20.38,14.52t21,13.12l.31.18q10.53-6.11,20.65-12.83,10.47-6.94,20.46-14.51,3.59-2.73,7.11-5.51a407,407,0,0,0,34.31-30.5Q290,337,295.15,331.48A404.57,404.57,0,0,0,326,294.13q1.49-2,2.94-4.07a402.77,402.77,0,0,0,25.86-41.43q6.74-12.4,12.62-25.31,3.63-8,6.92-16.11a401.39,401.39,0,0,0,14.14-41.42,400.43,400.43,0,0,0,9.34-41.42,403.23,403.23,0,0,0,4.87-41.43q.89-13.36.89-26.95V55q-18.29,0-36.16-1.69a402.87,402.87,0,0,1-41.42-6q-12.7-2.49-25.13-5.79-8.22-2.19-16.3-4.7A397.77,397.77,0,0,1,243.16,21.4,402.94,402.94,0,0,1,202.05.58ZM180.7,165.79v-118c1-.5,2.07-1,3.1-1.53l1.17-.58q.61-.3,1.23-.63l.22-.11q1.32-.66,2.61-1.35c1.34-.69,2.66-1.4,4-2.11q4.41-2.37,8.73-4.88l.31-.18q4.47,2.59,9,5.06,1.95,1,3.9,2.07t3.84,2c1.28.65,2.57,1.29,3.87,1.93V165.79Zm62.46,0V56.67a328.62,328.62,0,0,0,41.42,13.79v95.33Zm-124.27,0V70.62a328.94,328.94,0,0,0,41.43-13.7V165.79Zm207.12,78V78.49a336.73,336.73,0,0,0,41.42,2.72h.47v1.73q0,8.49-.47,16.87-.65,12.41-2.19,24.56a332.63,332.63,0,0,1-8,41.42,330,330,0,0,1-13.72,41.42A330.87,330.87,0,0,1,326,243.76ZM77.47,242.64A330.6,330.6,0,0,1,38.86,124.37,337.06,337.06,0,0,1,36.2,82.94V81.21a336.56,336.56,0,0,0,41.27-2.64V242.64Zm165.69,99.05V207.21h41.42v95a331.25,331.25,0,0,1-29.28,29.25q-5.94,5.26-12.14,10.21Zm-82.84-.5q-5.88-4.71-11.52-9.71a331.76,331.76,0,0,1-29.91-30v-94.3h41.43v134Z" transform="translate(-0.5 -0.58)"/></g></g></svg>